<svg width="427" height="173" viewBox="0 0 427 173" fill="none" xmlns="http://www.w3.org/2000/svg">
<path d="M299.763 111.576C298.995 111.576 298.377 111.064 297.907 110.04C298.846 108.589 299.913 104.728 301.107 98.456C302.345 92.1413 303.39 85.6133 304.243 78.872C305.097 72.2587 305.566 67.864 305.651 65.688L303.347 65.88C303.049 65.9227 302.601 65.944 302.003 65.944C299.699 65.944 298.547 65.2827 298.547 63.96V63.64L299.379 62.616V62.552C299.891 62.7227 300.51 62.808 301.235 62.808C301.918 62.808 302.921 62.68 304.243 62.424C305.737 62.2107 306.739 62.104 307.251 62.104C307.763 62.104 308.169 62.296 308.467 62.68C308.809 63.0213 308.979 63.448 308.979 63.96C308.979 75.1813 306.611 89.9653 301.875 108.312L303.283 108.248C303.838 108.163 304.499 108.12 305.267 108.12C307.529 108.12 308.659 108.76 308.659 110.04V110.36L307.635 111.32L303.731 111.448C302.537 111.533 301.214 111.576 299.763 111.576ZM335.651 111.576C334.669 111.576 333.944 111.427 333.475 111.128C333.005 110.829 332.771 110.275 332.771 109.464C332.771 108.184 332.557 106.008 332.131 102.936L331.875 101.592L325.539 100.632C325.283 101.613 324.92 103.597 324.451 106.584C324.195 108.675 323.789 110.061 323.235 110.744C322.936 111.128 322.509 111.32 321.955 111.32C321.443 111.32 320.973 111.171 320.547 110.872C320.12 110.531 319.907 110.125 319.907 109.656L320.035 109.336L320.099 109.08C322.915 98.1147 325.048 87.2987 326.499 76.632C326.499 76.4613 326.52 76.184 326.563 75.8C326.605 75.3733 326.648 74.776 326.691 74.008C326.819 72.4293 326.947 71.1707 327.075 70.232C327.245 69.2933 327.501 68.5893 327.843 68.12H330.019C330.616 68.12 331.128 68.2693 331.555 68.568C331.981 68.824 332.195 69.208 332.195 69.72C332.195 72.9627 332.643 77.784 333.539 84.184C334.392 90.7547 334.819 95.3627 334.819 98.008C334.819 98.264 334.925 98.9253 335.139 99.992C335.352 100.973 335.459 101.613 335.459 101.912C335.459 102.211 335.672 103.491 336.099 105.752C336.483 107.8 336.675 109.123 336.675 109.72V109.784C336.675 110.723 336.333 111.32 335.651 111.576ZM331.427 99.288C331.299 98.648 331.235 97.8587 331.235 96.92C331.235 93.08 330.893 88.1733 330.211 82.2L329.571 75.544C327.736 85.5707 326.477 93.144 325.795 98.264C326.435 98.6907 328.312 99.032 331.427 99.288ZM330.211 64.792C329.229 64.792 328.355 64.5787 327.587 64.152C326.861 63.6827 326.307 63.0427 325.923 62.232C325.155 60.7387 324.771 59.0533 324.771 57.176C324.771 56.92 324.877 56.7067 325.091 56.536C325.347 56.3227 325.645 56.216 325.987 56.216C326.456 56.216 326.883 56.4933 327.267 57.048C327.651 57.6027 327.949 58.264 328.163 59.032C328.376 59.8 328.653 60.4613 328.995 61.016C329.336 61.5707 329.677 61.848 330.019 61.848C330.701 61.848 331.235 61.528 331.619 60.888C332.003 60.248 332.195 59.5867 332.195 58.904C332.195 58.0507 332.323 57.432 332.579 57.048C332.835 56.664 333.304 56.472 333.987 56.472C334.456 56.472 334.861 56.6427 335.203 56.984C335.544 57.2827 335.715 57.6453 335.715 58.072C335.715 58.6267 335.672 59.16 335.587 59.672C335.245 61.208 334.627 62.4453 333.731 63.384C332.835 64.3227 331.661 64.792 330.211 64.792ZM351.832 109.976L351.768 107.48C351.725 106.755 351.704 105.944 351.704 105.048L351.768 102.872C351.64 102.403 351.32 97.7307 350.808 88.856C350.296 79.9813 349.997 74.2853 349.912 71.768C347.437 71.6827 345.858 71.4267 345.176 71C344.706 70.6587 344.472 70.2747 344.472 69.848C344.472 69.5067 344.685 69.208 345.112 68.952C345.581 68.6533 346.05 68.504 346.52 68.504C347.714 68.504 349.165 68.5893 350.872 68.76C352.493 68.9733 353.944 69.08 355.224 69.08H355.736H356.248C357.57 69.08 358.232 69.592 358.232 70.616C358.232 71.128 358.018 71.5547 357.592 71.896C357.165 72.1947 356.674 72.344 356.12 72.344C355.736 72.344 355.181 72.28 354.456 72.152L353.176 71.896L353.112 72.216L353.048 72.536C353.048 76.3333 353.41 82.392 354.136 90.712C354.818 98.52 355.16 104.579 355.16 108.888C355.16 109.4 354.925 109.848 354.456 110.232C354.029 110.616 353.538 110.808 352.984 110.808L351.832 109.976ZM377.551 111.96C376.527 111.96 375.609 111.725 374.799 111.256C373.988 110.829 373.327 110.189 372.815 109.336C371.791 107.544 371.129 105.517 370.831 103.256C370.532 101.293 370.383 98.9467 370.383 96.216C370.255 91.608 370.191 85.976 370.191 79.32L370.127 74.392C370.084 74.136 370.063 73.7093 370.063 73.112C369.977 71.4907 369.935 70.5093 369.935 70.168C370.319 69.272 370.767 68.824 371.279 68.824C371.791 68.824 372.239 69.208 372.623 69.976C373.049 70.744 373.263 71.576 373.263 72.472V89.88C373.263 91.5867 373.412 93.848 373.711 96.664C374.009 100.163 374.159 102.424 374.159 103.448C374.159 106.605 375.503 108.184 378.191 108.184C381.263 108.184 382.799 96.7067 382.799 73.752V70.168V69.592C382.756 69.464 382.735 69.2933 382.735 69.08C382.735 68.568 382.841 68.2053 383.055 67.992C383.311 67.736 383.78 67.608 384.463 67.608C385.017 67.608 385.444 67.7787 385.743 68.12C386.084 68.4187 386.297 68.7813 386.383 69.208C386.425 69.464 386.447 69.9547 386.447 70.68C386.447 71.3627 386.383 72.4507 386.255 73.944C386.084 75.1813 385.999 76.248 385.999 77.144C385.999 78.1253 385.956 79 385.871 79.768L385.743 82.456V82.968C385.785 83.1387 385.807 83.3307 385.807 83.544C385.807 102.488 383.055 111.96 377.551 111.96ZM417.38 111.192C416.868 111.192 416.484 111.064 416.228 110.808C415.972 110.509 415.78 110.019 415.652 109.336L415.268 108.12V107.992V107.8C415.268 106.392 413.796 101.592 410.852 93.4C407.95 85.208 405.668 79.1493 404.004 75.224V107.416L404.26 107.864C404.302 107.949 404.388 108.099 404.516 108.312C404.644 108.525 404.708 108.739 404.708 108.952C404.708 109.507 404.516 109.976 404.132 110.36C403.748 110.744 403.278 110.936 402.724 110.936C401.358 110.936 400.676 109.635 400.676 107.032L400.612 96.088C400.569 92.8027 400.548 89.1333 400.548 85.08C400.548 83.7147 400.612 81.7307 400.74 79.128C400.868 76.44 400.932 74.456 400.932 73.176C400.932 71.1707 401.7 69.592 403.236 68.44V68.824C403.492 68.7387 403.662 68.696 403.748 68.696C404.729 68.696 405.966 70.4027 407.46 73.816C408.654 76.5467 409.721 79.4267 410.66 82.456C411.641 85.4853 412.921 89.7947 414.5 95.384L415.14 97.688C416.121 101.144 416.868 103.619 417.38 105.112C418.233 95.9387 418.66 85.1013 418.66 72.6V71.768C418.617 71.512 418.596 71.2347 418.596 70.936C418.596 69.656 419.108 69.016 420.132 69.016C420.729 69.016 421.177 69.2507 421.476 69.72C421.817 70.1893 421.988 70.7867 421.988 71.512V76.312C421.902 82.8827 421.646 90.008 421.22 97.688C420.793 105.368 420.281 109.699 419.684 110.68C418.446 111.021 417.678 111.192 417.38 111.192Z" fill="#DEB52D"/>
<path d="M189.442 109.831C187.664 109.831 186.774 109.347 186.774 108.381L186.89 101.247L187.006 94.1127C187.006 91.522 186.948 87.5974 186.832 82.3387C186.716 77.1187 186.658 73.194 186.658 70.5647V70.2167C186.658 69.2114 186.755 68.2834 186.948 67.4327C187.18 66.3887 187.799 65.8667 188.804 65.8667C191.511 65.8667 193.657 66.7367 195.242 68.4767C196.828 70.2167 197.62 72.5174 197.62 75.3787C197.62 77.1187 197.156 78.936 196.228 80.8307C195.3 82.7254 194.198 84.1367 192.922 85.0647C195.165 86.5727 196.808 88.5254 197.852 90.9227C198.935 93.2814 199.476 95.8914 199.476 98.7527C199.476 100.106 199.012 101.788 198.084 103.799C196.963 106.196 195.436 107.917 193.502 108.961C192.342 109.541 191.066 109.831 189.674 109.831H189.442ZM190.022 84.1947C191.028 83.9627 191.878 83.1314 192.574 81.7007C193.154 80.618 193.696 79.3034 194.198 77.7567C194.314 77.3314 194.508 76.79 194.778 76.1327V74.1027C194.778 72.9427 194.353 71.8214 193.502 70.7387C192.652 69.656 191.685 69.1147 190.602 69.1147C190.061 69.1147 189.79 69.714 189.79 70.9127C189.79 73.4647 189.829 75.746 189.906 77.7567L190.022 84.1947ZM190.254 106.815C192.149 106.544 193.657 105.674 194.778 104.205C195.9 102.735 196.46 100.976 196.46 98.9267C196.46 97.148 196.306 95.524 195.996 94.0547C195.726 92.5467 195.358 91.406 194.894 90.6327C194.469 89.898 194.044 89.2794 193.618 88.7767C193.193 88.274 192.826 87.9454 192.516 87.7907L192.052 87.6167H189.964C190.158 92.0634 190.254 98.4627 190.254 106.815ZM216.439 109.889C215.549 109.889 214.892 109.753 214.467 109.483C214.041 109.212 213.829 108.709 213.829 107.975C213.829 106.815 213.635 104.843 213.249 102.059L213.017 100.841L207.275 99.9707C207.043 100.86 206.714 102.658 206.289 105.365C206.057 107.259 205.689 108.516 205.187 109.135C204.916 109.483 204.529 109.657 204.027 109.657C203.563 109.657 203.137 109.521 202.751 109.251C202.364 108.941 202.171 108.574 202.171 108.149L202.287 107.859L202.345 107.627C204.897 97.6894 206.83 87.8874 208.145 78.2207C208.145 78.066 208.164 77.8147 208.203 77.4667C208.241 77.08 208.28 76.5387 208.319 75.8427C208.435 74.412 208.551 73.2714 208.667 72.4207C208.821 71.57 209.053 70.932 209.363 70.5067H211.335C211.876 70.5067 212.34 70.642 212.727 70.9127C213.113 71.1447 213.307 71.4927 213.307 71.9567C213.307 74.8954 213.713 79.2647 214.525 85.0647C215.298 91.0194 215.685 95.1954 215.685 97.5927C215.685 97.8247 215.781 98.424 215.975 99.3907C216.168 100.28 216.265 100.86 216.265 101.131C216.265 101.401 216.458 102.561 216.845 104.611C217.193 106.467 217.367 107.665 217.367 108.207V108.265C217.367 109.115 217.057 109.657 216.439 109.889ZM212.611 98.7527C212.495 98.1727 212.437 97.4574 212.437 96.6067C212.437 93.1267 212.127 88.68 211.509 83.2667L210.929 77.2347C209.266 86.3214 208.125 93.1847 207.507 97.8247C208.087 98.2114 209.788 98.5207 212.611 98.7527ZM231.277 110.295C229.885 109.831 228.164 109.599 226.115 109.599C225.496 109.985 224.839 110.179 224.143 110.179C223.679 110.179 223.273 109.966 222.925 109.541C222.615 109.154 222.461 108.729 222.461 108.265C222.461 105.017 222.596 100.686 222.867 95.2727C223.099 89.5114 223.215 85.2 223.215 82.3387V81.9327C222.983 79.4967 222.867 77.6794 222.867 76.4807C222.867 72.8074 223.543 70.9707 224.897 70.9707C225.283 70.9707 225.612 71.1254 225.883 71.4347C226.192 71.7054 226.347 72.034 226.347 72.4207C226.347 72.8847 226.289 73.6194 226.173 74.6247C226.057 75.5914 225.999 76.326 225.999 76.8287C225.999 79.4194 226.018 81.7587 226.057 83.8467C226.095 85.896 226.115 88.216 226.115 90.8067C225.921 91.3867 225.825 92.1987 225.825 93.2427V93.9387L225.709 98.5207C225.631 99.874 225.593 101.421 225.593 103.161C225.593 105.829 226.231 107.163 227.507 107.163C227.584 107.163 227.7 107.163 227.855 107.163C228.048 107.124 228.299 107.105 228.609 107.105C228.957 107.066 229.401 107.047 229.943 107.047C232.031 107.047 233.075 107.627 233.075 108.787C233.075 109.173 232.901 109.502 232.553 109.773C232.205 110.043 231.779 110.217 231.277 110.295ZM241.112 108.439L241.054 106.177C241.016 105.519 240.996 104.785 240.996 103.973L241.054 102.001C240.938 101.575 240.648 97.3414 240.184 89.2987C239.72 81.256 239.45 76.094 239.372 73.8127C237.13 73.7354 235.699 73.5034 235.08 73.1167C234.655 72.8074 234.442 72.4594 234.442 72.0727C234.442 71.7634 234.636 71.4927 235.022 71.2607C235.448 70.99 235.873 70.8547 236.298 70.8547C237.381 70.8547 238.696 70.932 240.242 71.0867C241.712 71.28 243.026 71.3767 244.186 71.3767H244.65H245.114C246.313 71.3767 246.912 71.8407 246.912 72.7687C246.912 73.2327 246.719 73.6194 246.332 73.9287C245.946 74.1994 245.501 74.3347 244.998 74.3347C244.65 74.3347 244.148 74.2767 243.49 74.1607L242.33 73.9287L242.272 74.2187L242.214 74.5087C242.214 77.95 242.543 83.4407 243.2 90.9807C243.819 98.0567 244.128 103.547 244.128 107.453C244.128 107.917 243.916 108.323 243.49 108.671C243.104 109.019 242.659 109.193 242.156 109.193L241.112 108.439ZM264.13 109.889C263.241 109.889 262.583 109.753 262.158 109.483C261.733 109.212 261.52 108.709 261.52 107.975C261.52 106.815 261.327 104.843 260.94 102.059L260.708 100.841L254.966 99.9707C254.734 100.86 254.405 102.658 253.98 105.365C253.748 107.259 253.381 108.516 252.878 109.135C252.607 109.483 252.221 109.657 251.718 109.657C251.254 109.657 250.829 109.521 250.442 109.251C250.055 108.941 249.862 108.574 249.862 108.149L249.978 107.859L250.036 107.627C252.588 97.6894 254.521 87.8874 255.836 78.2207C255.836 78.066 255.855 77.8147 255.894 77.4667C255.933 77.08 255.971 76.5387 256.01 75.8427C256.126 74.412 256.242 73.2714 256.358 72.4207C256.513 71.57 256.745 70.932 257.054 70.5067H259.026C259.567 70.5067 260.031 70.642 260.418 70.9127C260.805 71.1447 260.998 71.4927 260.998 71.9567C260.998 74.8954 261.404 79.2647 262.216 85.0647C262.989 91.0194 263.376 95.1954 263.376 97.5927C263.376 97.8247 263.473 98.424 263.666 99.3907C263.859 100.28 263.956 100.86 263.956 101.131C263.956 101.401 264.149 102.561 264.536 104.611C264.884 106.467 265.058 107.665 265.058 108.207V108.265C265.058 109.115 264.749 109.657 264.13 109.889ZM260.302 98.7527C260.186 98.1727 260.128 97.4574 260.128 96.6067C260.128 93.1267 259.819 88.68 259.2 83.2667L258.62 77.2347C256.957 86.3214 255.817 93.1847 255.198 97.8247C255.778 98.2114 257.479 98.5207 260.302 98.7527Z" fill="white"/>
<g clip-path="url(#clip0_83_138)">
<path d="M78.6202 47.8486C83.7152 45.6224 89.4917 40.2102 95.1063 39.3543C91.4138 37.9392 86.5651 35.1569 81.6604 35.2247C81.4117 34.9468 81.0297 35.4029 80.9102 35.6606C84.6325 36.9844 89.7589 37.3452 92.5144 39.5032C86.1768 41.3408 81.1684 44.9523 76.3975 48.0544C77.0944 48.6045 77.9414 48.1445 78.6201 47.8485L78.6202 47.8486Z" fill="#AD0806"/>
<path d="M63.7637 45.8953C67.3902 45.7592 71.0645 45.4969 74.6149 45.5611C71.8081 43.8796 67.1065 44.4542 63.7637 45.8953V45.8953Z" fill="#DEB52D"/>
<path d="M89.7568 31.8767C91.4937 33.1593 94.7653 34.7477 97.43 35.2893C95.1782 33.3452 92.6424 32.1514 89.7568 31.8767V31.8767Z" fill="#DEB52D"/>
<path d="M60.3071 50.89C63.5564 49.3514 65.7632 50.5582 68.7136 49.8049C66.874 48.6239 62.8771 48.7693 59.4672 50.0208C59.5936 50.7147 60.1252 50.3419 60.307 50.89L60.3071 50.89Z" fill="#AD0806"/>
<path d="M55.4954 55.8579C58.4027 54.7062 60.7565 55.0105 63.5482 54.164C61.5732 53.4162 56.2716 53.2602 55.4954 55.8579Z" fill="#AD0806"/>
<path d="M36.2297 71.6669C38.1882 70.3546 40.8152 69.5044 40.3942 67.8898C36.0607 69.9533 32.53 73.4916 29.9598 75.8532C26.2899 79.2252 21.9313 83.2147 21.294 86.8602C24.3525 83.8746 27.2712 80.2948 29.4161 77.7977C31.2973 75.6075 33.6575 73.3906 36.2297 71.6669Z" fill="#DEB52D"/>
<path d="M72.6163 51.3378C67.8364 51.8868 61.7385 57.9466 60.0333 61.3639C61.2121 60.8101 60.7341 59.9971 61.5634 59.3891C65.1614 58.1623 68.53 53.1032 72.6163 51.3377L72.6163 51.3378Z" fill="#AD0806"/>
<path d="M79.7107 48.5722C78.0532 50.2677 80.1522 53.3723 82.2301 51.1797C80.5781 50.9132 80.3757 49.5222 79.7107 48.5722Z" fill="#DEB52D"/>
<path d="M82.7142 46.8271C81.3916 47.7885 81.3648 48.9531 82.3782 50.2795C84.0399 49.9976 84.972 50.488 86.6031 48.9102C85.9399 47.6382 85.8452 46.4553 85.8352 45.2849C84.5421 46.3128 85.025 47.6178 83.7753 48.6534C83.0898 47.9693 83.2783 46.9364 82.7141 46.8271L82.7142 46.8271Z" fill="#AD0806"/>
<path d="M76.563 51.2158C76.2884 52.1388 77.5241 54.2401 79.2291 52.9238C78.3165 52.4165 77.6979 51.136 76.563 51.2158V51.2158Z" fill="#AD0806"/>
<path d="M88.7065 48.5012C89.4654 48.0048 90.6232 47.5707 90.8406 46.9896C89.6203 45.9696 88.9649 45.8149 88.8222 44.091C87.1136 45.2739 86.635 47.8632 88.7065 48.5012Z" fill="#DEB52D"/>
<path d="M76.0046 53.7113C74.7807 54.5379 74.6048 52.6055 73.4277 53.3087C72.667 53.8045 73.9062 54.6134 73.5024 55.1653C72.5253 55.5143 72.1415 54.2993 71.0434 54.9657C71.1423 55.4731 70.8984 55.927 70.8823 56.4164C71.878 57.6247 76.7036 55.6643 76.0046 53.7113L76.0046 53.7113Z" fill="#DEB52D"/>
<path d="M68.5403 56.4199C68.4089 57.2461 68.7607 58.9784 70.0875 58.5064C70.4601 57.8025 69.7078 56.2294 69.291 55.9837L68.5403 56.4199V56.4199Z" fill="#AD0806"/>
<path d="M64.5224 59.2973C65.2955 60.3709 65.0849 62.2261 66.8059 61.499C66.5064 60.5912 66.5076 59.7304 65.8913 58.7732C65.5017 58.7723 65.0649 58.8954 64.5223 59.2973L64.5224 59.2973Z" fill="#AD0806"/>
<path d="M25.8014 88.8552C29.0977 85.9179 32.225 82.644 35.028 79.9651C37.1719 77.9163 40.2483 76.1315 40.6191 73.4589L39.368 74.1859C32.451 82.0224 22.4111 89.371 16.708 97.3965C16.8233 98.525 15.3335 100.375 17.2256 101.167C18.2824 97.0111 21.2776 92.8871 25.8023 88.8547L25.8014 88.8552Z" fill="#DEB52D"/>
<path d="M62.4919 61.5633L61.7413 61.9995C61.0618 62.9915 63.2121 63.543 62.2876 64.6677C61.1708 64.8699 60.1949 64.7013 59.4749 63.8592C57.3023 67.5041 63.0101 66.6227 65.0255 63.6194C65.0057 62.6012 62.8882 63.2413 62.4919 61.5631L62.4919 61.5633Z" fill="#AD0806"/>
<path d="M94.1843 46.4048C94.7552 45.0869 92.2984 43.4823 91.6217 45.451C92.0495 46.8904 93.0625 46.7903 94.1843 46.4048Z" fill="#DEB52D"/>
<path d="M59.4781 68.4727C58.5515 67.8321 57.8405 66.6241 56.6942 66.5618C56.1838 68.0114 57.482 69.6337 59.4781 68.4727Z" fill="#DEB52D"/>
<path d="M54.6502 69.3779C53.7816 70.9192 55.9046 72.8121 57.3162 71.0859C56.6068 70.0437 55.822 69.2009 54.6502 69.3779Z" fill="#AD0806"/>
<path d="M52.2212 72.6896C53.0742 74.406 54.1967 74.4104 55.7846 73.0617C54.7556 72.5197 53.683 72.0923 52.2212 72.6896Z" fill="#DEB52D"/>
<path d="M92.7422 49.6849C93.1176 49.5521 93.388 49.6958 93.8615 49.3059L93.5078 48.6971C92.9041 48.9722 92.5954 49.2929 92.7422 49.6849Z" fill="#AD0806"/>
<path d="M103.991 48.3069C102.459 49.4206 103.195 50.8885 101.431 51.9659C100.626 51.8148 101.422 49.8532 100.002 50.0822C98.92 51.2043 100.64 52.7644 99.1651 53.8255C99.3665 55.3613 102.189 56.1608 100.183 57.3054C97.6599 55.23 99.6755 51.6788 97.4252 49.6793C95.2801 51.0661 96.3332 52.9529 94.4685 54.3831C93.6088 53.5108 94.3642 52.8909 93.7898 52.0632C91.764 53.0385 93.8448 54.655 92.2166 55.6916C91.5292 54.5388 92.3067 53.6148 91.3165 52.4147L89.3148 53.578C88.9413 54.4425 89.4902 55.4507 88.5065 56.2191C87.4748 56.1236 88.0006 54.5983 87.1951 54.5382C85.426 55.5533 86.1279 56.9544 85.6223 58.1665C84.6218 58.5759 84.1963 57.4706 83.6925 56.5736C81.373 57.7071 83.7489 58.9266 82.9878 59.9687C82.177 60.0508 81.3421 60.1944 80.779 59.6237C81.0499 59.2355 81.0202 58.8004 80.6898 58.3183C79.2795 58.7052 79.1039 60.7372 80.2209 62.1193C79.4577 61.9832 79.2642 62.7516 78.8375 63.1947C79.7445 63.8868 80.5458 64.8563 82.0184 64.0605C82.8676 63.2707 81.8439 62.1884 83.1947 61.4769C83.3024 62.0115 83.4447 63.3544 84.3882 62.9549C84.5753 61.6807 85.3968 58.7866 87.0802 58.9477C86.9643 59.9746 85.6241 60.8111 85.7721 61.8793C86.0914 62.5787 86.6362 62.6834 87.3626 62.3122C87.7678 61.2647 88.258 59.2596 90.1582 59.0591C90.0911 60.1556 88.2185 60.97 89.3356 62.2514C90.8998 61.5748 90.7732 59.0794 92.485 59.607C93.0174 60.5508 91.3596 61.1527 92.2956 62.1599C93.2587 61.8061 93.8278 60.4479 94.7979 60.7059C95.347 61.2225 94.3378 61.4946 94.887 62.0112C95.6512 61.8816 96.1947 62.3331 97.1097 61.8054C97.8492 60.5065 98.2137 59.149 99.552 57.9433C100.278 58.6329 99.6881 59.603 100.613 59.7695C102.378 58.996 101.782 56.8829 103.158 56.6621C103.309 57.3034 102.686 58.3788 103.601 58.5763C105.284 58.215 104.307 56.4851 105.131 56.6011C105.704 58.6588 104.376 60.4195 104.486 62.4044C105.964 62.5868 105.844 62.171 106.37 61.0383C107.358 58.9152 106.364 59.4011 106.353 56.9768C106.346 55.5098 107.187 55.0418 106.793 54.2781C106.365 53.4468 105.218 53.2929 104.864 52.6849C104.099 51.3785 104.69 49.1652 103.991 48.3067L103.991 48.3069ZM94.6028 58.6474C94.0706 57.8263 93.5322 57.0043 93.9241 56.3276C94.8424 56.2362 96.0846 58.0618 94.6028 58.6474ZM97.4883 56.6998C96.2989 57.2689 96.6218 55.3322 96.4271 54.8736L97.428 54.292C97.6094 55.1202 97.5541 55.9106 97.4883 56.6998ZM103.215 54.458C101.637 54.9142 101.995 52.9388 102.167 52.081C102.538 51.7892 102.709 52.0227 103.036 51.8477C103.623 52.8 102.909 53.5494 103.215 54.4581L103.215 54.458Z" fill="#DEB52D"/>
<path d="M51.4131 75.3302C52.0896 75.9459 52.8207 76.4157 53.99 75.7328C53.3939 74.9075 52.535 74.7733 51.4131 75.3302Z" fill="#AD0806"/>
<path d="M110.199 41.7121C109.511 42.0355 109.166 42.4113 109.552 42.9024C110.24 42.5797 110.585 42.2032 110.199 41.7121Z" fill="#AD0806"/>
<path d="M50.2371 77.9142C50.6232 78.3435 50.0361 78.6208 50.5764 79.0742C51.1035 78.8844 51.4591 79.146 52.0633 78.753C52.3079 77.8514 51.2628 77.0586 50.2371 77.9142Z" fill="#DEB52D"/>
<path d="M121.639 37.7806C121.386 36.5616 120.241 37.6952 119.548 37.6384C120.062 38.1651 120.707 38.3522 121.639 37.7806Z" fill="#AD0806"/>
<path d="M48.4423 80.5864C48.0093 81.8898 50.1008 82.2165 50.651 80.9315C50.1731 80.1365 49.4368 80.0215 48.4423 80.5864V80.5864Z" fill="#AD0806"/>
<path d="M124.463 38.0369C124.337 37.3434 123.806 37.7158 123.624 37.1675L122.623 37.7491C122.986 38.5052 123.6 38.6011 124.463 38.0369Z" fill="#AD0806"/>
<path d="M47.5287 82.4721C47.5815 83.3202 48.3168 84.6239 49.5908 83.7168C49.7835 82.708 48.5475 81.9118 47.5287 82.4721Z" fill="#DEB52D"/>
<path d="M106.348 52.3639C106.895 51.0959 107.575 49.8497 108.909 48.7047C107.102 46.6449 104.323 51.5604 106.348 52.3639Z" fill="#AD0806"/>
<path d="M93.9246 56.3278C93.5326 57.0045 94.071 57.8266 94.6032 58.6476C96.085 58.062 94.8428 56.2363 93.9246 56.3278Z" fill="#AD0806"/>
<path d="M97.4886 56.6994C97.5543 55.9102 97.6097 55.1197 97.4283 54.2915L96.4274 54.8732C96.622 55.3317 96.2989 57.268 97.4886 56.6994Z" fill="#AD0806"/>
<path d="M142.813 43.1179C143.488 43.0513 144.32 42.5738 144.786 43.0572C145.495 44.2717 146.615 44.4007 147.703 44.6194C147.787 41.8387 144.548 41.3089 142.267 40.4494C137.296 38.5765 131.501 37.8699 126.82 37.4826C126.375 37.7209 126.068 37.9801 125.937 38.2674L126.29 38.8762C132.225 39.1657 137.845 40.2855 142.813 43.1178L142.813 43.1179Z" fill="#DEB52D"/>
<path d="M102.167 52.0805C101.994 52.9387 101.637 54.9139 103.214 54.4576C102.909 53.5493 103.623 52.7994 103.036 51.8469C102.709 52.0222 102.538 51.7887 102.167 52.0805L102.167 52.0805Z" fill="#AD0806"/>
<path d="M68.0054 72.2028C67.4709 73.3854 68.5415 75.2938 70.1565 74.7527C68.6204 74.118 69.6797 71.7422 68.0054 72.2028Z" fill="#AD0806"/>
<path d="M72.9368 72.0505C71.7721 72.7211 71.6243 70.7147 70.7568 70.603C69.9629 71.7328 72.1792 73.6173 72.9368 72.0505Z" fill="#AD0806"/>
<path d="M46.7217 85.1127C46.5811 85.7395 47.5625 86.7 48.4157 86.2998C49.2431 85.5 47.7698 84.1383 46.7217 85.1127Z" fill="#AD0806"/>
<path d="M115.306 58.5602C114.069 54.985 117.245 51.0243 119.657 47.6173C117.851 47.7001 116.506 50.2786 115.639 50.495C115.603 49.8125 116.105 49.2145 115.814 48.493C114.85 49.1476 113.293 50.6735 112.798 50.7887C113.511 49.2773 111.543 50.6188 111.722 49.5137C112.179 49.1672 112.378 49.4993 112.709 49.4833C111.614 47.8978 114.146 46.8793 115.887 45.7365C112.176 45.4757 110.146 50.0501 108.691 52.361C108.432 55.3274 110.018 58.1566 111.552 60.7412C114.534 61.7892 116.698 64.989 120.727 63.2813C118.97 61.1903 116.093 60.8397 115.306 58.5601L115.306 58.5602Z" fill="#DEB52D"/>
<path d="M68.9794 77.3371C67.8692 76.1682 65.7714 76.9043 66.092 74.6721L65.0911 75.2537C65.6324 75.7688 65.265 76.1422 65.5483 76.6166C66.6906 76.8627 67.6207 77.6641 68.9794 77.3371L68.9794 77.3371Z" fill="#AD0806"/>
<path d="M80.7081 66.9926C81.0807 68.5268 80.5553 69.9206 80.2248 71.345C82.1309 73.1625 85.275 72.1159 86.5578 74.1793C87.8238 74.0719 89.0257 74.591 90.2823 73.1007C89.3214 72.3795 87.8356 73.0387 87.1158 71.6836C91.3185 70.0297 95.2641 69.0545 99.2902 67.8663C95.2305 67.7751 90.4534 69.5706 85.5112 71.8017C84.8965 71.7076 84.1895 71.8589 83.8028 71.1659C87.5599 69.146 90.7097 68.726 94.1221 67.6123C90.7069 66.679 85.5184 70.4138 81.991 69.7758C84.7845 67.7674 88.6292 67.3275 91.5596 66.6583C89.3077 64.8171 83.8154 69.0057 82.1809 67.2225C84.2239 66.1218 85.8806 66.0378 87.6424 65.6774C85.7312 65.0621 83.3708 65.6307 80.7082 66.9926L80.7081 66.9926Z" fill="#0146AE"/>
<path d="M45.0157 89.091C44.9993 89.9532 45.5135 90.3161 46.2092 90.5689C46.7088 90.3391 46.6283 90.0194 47.0921 89.7844C46.6729 88.8349 45.9865 88.5885 45.0157 89.091Z" fill="#AD0806"/>
<path d="M77.6629 70.3914C77.3365 70.5664 77.1652 70.3329 76.7944 70.6247C76.6156 71.9059 76.7819 74.5045 78.7988 74.0741C78.7037 73.8133 79.0665 73.6239 79.4315 73.435C79.0029 72.7873 76.8027 72.2026 77.6628 70.3913L77.6629 70.3914Z" fill="#AD0806"/>
<path d="M63.2692 79.0266C63.1801 80.2557 65.4811 81.8659 67.0108 82.0095C65.7836 81.2213 66.1784 80.1895 65.9784 79.0809C64.9389 79.4231 64.1334 79.1459 63.2692 79.0266L63.2692 79.0266Z" fill="#AD0806"/>
<path d="M77.5329 75.3514C77.1841 74.6142 75.8527 73.2579 74.7634 72.8892C74.2871 73.7988 75.1826 74.9223 75.5455 75.9633C76.3672 75.8845 76.9108 76.1708 77.5329 75.3513L77.5329 75.3514Z" fill="#AD0806"/>
<path d="M42.8526 91.7033C43.3188 92.3593 44.0519 92.3104 44.4142 93.2388C45.0411 93.354 45.1478 92.5716 46.1657 92.221C45.0484 92.0825 44.2109 91.2075 42.8526 91.7033Z" fill="#AD0806"/>
<path d="M76.1206 77.53C74.8309 76.8047 73.8531 75.909 73.866 74.226C71.908 74.4709 73.1602 76.656 73.6473 77.8816C74.5861 77.4621 75.0553 78.2803 76.1207 77.5301L76.1206 77.53Z" fill="#AD0806"/>
<path d="M98.1245 60.6723C97.8819 61.5676 98.9688 62.2513 99.8179 61.8597C100.689 61.0929 99.3205 60.5682 98.8746 60.2364L98.1245 60.6723Z" fill="#AD0806"/>
<path d="M129.77 42.5545C128.329 46.1031 134.909 47.1458 137.25 43.9077C135.632 41.1515 133.181 40.5885 129.77 42.5545ZM135.026 44.1144C133.055 45.1997 132.274 43.1485 130.742 43.0757C132.016 41.7811 135.007 42.1539 135.026 44.1144Z" fill="#DEB52D"/>
<path d="M69.4689 82.2087C70.0115 81.8069 70.4485 81.683 70.8379 81.6846C69.11 81.4209 68.9851 79.3542 67.5823 78.9622C66.7732 80.5085 68.4459 81.346 69.4689 82.2088L69.4689 82.2087Z" fill="#AD0806"/>
<path d="M71.0841 76.9276C70.7335 78.0643 71.4681 80.7803 73.4855 79.3321C72.0979 78.9531 72.4454 76.8438 71.0841 76.9276Z" fill="#AD0806"/>
<path d="M65.4646 84.5357C65.4422 83.6739 63.6413 83.6901 63.3135 81.9858C61.1242 83.3926 63.9956 85.2861 65.4646 84.5357Z" fill="#AD0806"/>
<path d="M133.501 55.3143C137.042 52.8623 142.808 48.1588 141.637 45.7004C138.449 45.7143 134.075 47.874 131.657 50.414C128.268 51.1122 125.31 53.2191 122.428 54.6914C121.806 51.6429 129.74 49.93 128.18 46.7345C123.478 45.3455 116.948 51.0433 116.877 54.9312C117.904 56.0756 117.041 56.9247 117.291 57.9478C119.039 59.5119 121.636 64.0353 124.568 62.4051C125.432 61.9243 125.361 60.7213 126.112 59.8793C127.536 58.2831 130.623 57.3073 133.501 55.3143Z" fill="#AD0806"/>
<path d="M130.741 43.0741C132.274 43.1471 133.054 45.1982 135.026 44.1128C135.007 42.1527 132.016 41.78 130.741 43.0741Z" fill="#AD0806"/>
<path d="M103.187 60.1725C101.914 60.1538 101.117 61.4853 102.144 62.4075C102.364 62.34 102.64 62.1264 102.762 62.3196C103.925 61.7629 103.822 61.0092 103.187 60.1725Z" fill="#AD0806"/>
<path d="M64.4215 86.771C63.6157 86.1547 62.534 86.2647 61.7411 85.6143C60.9471 87.0331 63.6724 87.9347 64.4215 86.771Z" fill="#AD0806"/>
<path d="M32.4517 103.177C31.2754 107.237 28.6203 111.065 29.1755 115.395C31.5023 111.209 32.2696 106.777 34.0708 102.508C33.6389 102.446 33.0527 102.792 32.4517 103.177Z" fill="#DEB52D"/>
<path d="M59.0622 89.0716C59.66 89.7223 60.5723 89.5462 61.3889 89.6196C60.1354 89.2516 60.3788 88.3337 59.974 87.1846C59.2935 87.7548 58.7145 88.3411 59.0622 89.0716L59.0622 89.0716Z" fill="#AD0806"/>
<path d="M139.707 44.107C139.449 43.5882 139.177 43.1079 138.749 43.035C137.787 43.3766 137.963 43.8961 137.116 44.2557C137.549 45.3396 138.572 44.8695 139.707 44.107Z" fill="#AD0806"/>
<path d="M58.3877 91.3615C58.6331 92.2554 59.3764 91.8377 59.9781 91.7945C59.6583 91.0953 59.1136 90.9906 58.3877 91.3615Z" fill="#AD0806"/>
<path d="M52.2351 95.7526C52.2643 97.2082 54.6045 96.5829 56.0486 95.9795C54.9337 95.4924 53.4803 95.8965 52.2351 95.7526Z" fill="#AD0806"/>
<path d="M71.61 89.9236C70.5038 88.9345 70.1354 87.8144 69.9736 86.5317C67.94 87.49 69.7261 90.9969 71.61 89.9236V89.9236Z" fill="#AD0806"/>
<path d="M72.4752 85.0781C72.301 86.0348 72.1231 86.991 72.8893 88.0947C73.3363 87.7744 73.5742 88.0026 74.008 87.716C72.6801 87.286 74.0542 84.8459 72.4752 85.0782L72.4752 85.0781Z" fill="#AD0806"/>
<path d="M76.5233 85.7101C76.5449 84.6684 76.9425 83.6846 76.7277 82.6057C76.0173 83.3453 74.7495 85.7944 76.5233 85.7101Z" fill="#AD0806"/>
<path d="M55.4897 98.4751C54.4989 98.0036 53.2415 98.2338 52.0442 98.3058C52.6238 99.6598 54.6926 99.3522 55.4897 98.4751Z" fill="#AD0806"/>
<path d="M68.8421 92.074C68.0101 91.5266 67.7189 89.5554 66.4263 90.2206C65.8362 91.4875 67.5665 92.628 68.8421 92.074Z" fill="#AD0806"/>
<path d="M79.2752 84.111C79.9703 83.7891 79.9329 83.3528 79.5542 82.8631C78.8594 83.1855 78.8961 83.6216 79.2752 84.111Z" fill="#AD0806"/>
<path d="M54.315 101.058C53.3409 100.2 51.782 100.882 50.5015 100.831C51.2633 102.248 52.5938 102.167 54.315 101.058Z" fill="#AD0806"/>
<path d="M49.5166 105.475L50.1062 106.49C51.1004 106.439 52.0656 106.465 53.198 106.05C52.3734 104.797 50.7028 105.774 49.5166 105.475L49.5166 105.475Z" fill="#AD0806"/>
<path d="M90.1333 93.0005C96.3698 93.1731 95.346 86.8415 97.2978 82.8657C98.3576 80.7067 100.356 79.1122 99.2819 77.6413C92.4082 82.1637 90.7979 87.5086 90.1333 93.0005Z" fill="#AD0806"/>
<path d="M51.8896 108.981C50.936 108.413 49.4143 109.338 48.3119 109.16C48.9202 110.637 50.3156 110.045 51.8896 108.981V108.981Z" fill="#AD0806"/>
<path d="M135.245 64.0729C134.99 65.2454 136.343 65.732 137.571 64.6209C137.139 63.5355 136.422 63.199 135.245 64.0729Z" fill="#DEB52D"/>
<path d="M139.782 69.5798C138.853 69.6137 137.422 68.2818 136.837 69.1193C137.627 69.4507 139.14 70.5635 139.782 69.5798Z" fill="#AD0806"/>
<path d="M73.767 106.311C72.6926 109.921 75.2139 117.903 79.1193 118.402C76.6382 114.337 74.6564 110.196 74.5177 105.875L73.767 106.311V106.311Z" fill="#DEB52D"/>
<path d="M86.9697 119.813C88.6854 118.153 87.6572 114.04 85.6558 113.52C85.5872 115.538 86.0414 117.638 86.9697 119.813Z" fill="#DEB52D"/>
<path d="M46.818 147.485C49.9199 146.17 48.6833 142.622 49.3461 140.316C47.4042 141.812 47.5078 145.183 46.818 147.485Z" fill="#DEB52D"/>
<path d="M87.2056 120.218C87.2239 120.528 87.2059 120.833 87.0589 121.118C88.1842 122.328 88.0676 124.157 89.1813 124.77C89.0732 126.09 90.2878 129.631 92.3937 129.146C90.8997 127.447 89.4049 122.213 88.0741 119.985C87.7484 120.16 87.5771 119.926 87.2055 120.218L87.2056 120.218Z" fill="#DEB52D"/>
<path d="M53.0596 144.403C52.078 146.243 50.9747 155.364 53.7245 155.408C52.3285 153.125 54.6513 145.501 53.0596 144.403Z" fill="#AD0806"/>
<path d="M58.0556 151.272C58.8512 148.998 57.0231 146.314 57.1385 143.933C54.8422 145.852 56.392 149.351 58.0556 151.272Z" fill="#AD0806"/>
<path d="M54.4887 146.286C54.2286 148.028 54.1535 149.8 54.5949 151.652C59.0251 162.504 55.6513 151.609 56.1997 151.534C55.1184 149.643 55.4073 147.966 55.1067 146.197C54.9596 146.071 54.7598 146.084 54.4886 146.286L54.4887 146.286Z" fill="#AD0806"/>
<path d="M60.422 145.554C60.6489 146.608 60.8475 148.399 62.3229 148.249C62.7199 147.762 61.4434 145.419 60.422 145.554V145.554Z" fill="#AD0806"/>
<path d="M154.019 43.3916C152.661 43.6046 151.01 42.2231 149.955 43.3101C152.167 43.8559 154.33 44.1886 153.8 47.0472C149.101 50.8297 144.193 55.6062 140.276 60.0628C140.053 61.1775 138.985 63 137.113 63.2579C137.098 62.3335 136.798 61.3638 136.08 60.3297C137.353 58.682 138.314 56.0069 140.774 55.1593C141.665 56.2825 140.097 57.0211 140.084 58.003C143.204 53.8785 149.306 50.2191 151.856 46.0053C149.921 44.9966 148.335 47.1521 145.011 48.6257C140.23 53.1063 136.286 57.7175 132.946 62.4227C131.217 62.6746 128.771 65.7855 127.087 65.0134C124.582 60.2281 129.737 58.2926 135.37 54.4995C140.502 51.0449 143.308 46.904 149.44 44.1519C148.732 43.5497 149.725 43.2128 149.233 42.6436C135.467 34.9098 118.676 35.1412 101.863 35.4268C100.978 34.074 98.9615 33.8438 98.7398 32.3559C93.9836 32.0431 90.6924 27.8743 85.1335 29.6768C85.544 30.6473 86.9958 31.5171 85.9157 32.7509C83.8645 35.0936 79.1749 33.0461 77.0087 34.1268C75.4566 34.9009 74.7217 36.9328 73.0943 37.7586C69.6969 39.4828 65.0815 38.1115 63.7614 41.2819C70.6625 39.0281 77.6922 39.1707 82.24 41.4014C77.0667 40.9898 71.9536 40.4181 66.3524 41.1336C65.0812 43.6394 62.4588 45.0603 60.1861 46.0739C60.1375 48.3471 57.4945 50.0565 54.7705 50.5781C54.1744 51.5035 55.9553 51.3677 55.478 51.7955C54.6513 52.2606 54.1866 51.774 53.2404 52.5529C52.6825 53.5223 54.7884 53.2141 54.1837 54.1762C53.1736 54.9532 52.5737 54.6504 51.5635 55.4274C51.5113 57.1926 50.2436 58.2425 50.344 59.6646C49.4989 60.3163 47.9706 60.1282 48.5781 61.2336C51.3632 61.259 55.1186 58.7301 57.6175 59.5094C54.1978 60.8135 50.9824 61.5776 47.6807 62.5694C47.9635 63.8781 49.2373 62.5781 49.4926 63.9594L47.7411 64.9772C47.7807 67.3207 44.1879 69.0963 44.8592 71.5377C45.5583 71.2372 46.2924 70.8445 46.8465 70.9257C48.3869 73.1289 45.8346 75.7565 44.5828 77.3983C37.8594 86.2171 27.4811 97.2337 25.2244 106.29C24.7499 108.193 24.8898 110.583 25.8023 112.469C27.7826 109.15 28.3489 104.627 31.1261 102.047C30.6436 105.445 27.5359 110.164 26.9958 113.947C26.4925 117.472 29.7034 119.058 31.2119 122.354C31.4598 116.796 33.5002 110.535 36.4437 106.014C36.3856 111.73 29.5603 118.336 34.2601 123.568C34.44 120.029 34.6987 115.52 36.757 112.889C36.7538 117.255 34.546 121.276 35.5573 125.8C37.052 124.433 36.2457 121.729 37.4097 120.924C38.1014 123.137 37.0548 125.017 38.3701 126.609C39.9302 128.495 41.6565 128.724 43.2018 130.315C49.197 136.489 44.1803 140.77 44.7924 149.729C44.4275 150.287 44.916 151.738 45.3356 152.418C45.3356 152.418 50.5269 159.475 54.5887 161.546C58.6496 163.617 60.8426 163.984 60.8959 160.671C60.942 157.801 59.6264 154.004 60.5088 152.215C64.6776 149.323 69.7687 145.961 73.2794 148.666C74.1935 147.957 75.1632 148.636 75.9468 148.275C78.3532 148.521 88.5347 153.607 91.6147 151.18C94.3306 149.041 90.675 142.245 89.6068 140.398C89.7009 140.384 89.7935 140.375 89.8823 140.375C86.704 137.151 83.5554 135.226 79.0857 133.892C70.414 131.303 59.8871 132.688 58.0968 121.388C59.9728 120.451 58.6828 119.02 59.7879 117.962C61.1499 118.455 59.7809 119.861 60.4522 120.834C61.2952 120.401 60.6128 118.782 61.7321 119.004C62.3607 120.43 63.3311 120.954 64.3839 121.264C68.1502 115.702 63.1576 108.772 63.6365 102.697C65.9424 97.4305 73.4358 93.1824 78.2932 88.7518C78.5214 89.0065 78.904 88.8549 79.1473 89.0698C78.5271 93.8465 82.3638 97.6348 87.8817 94.3086C95.468 96.6887 96.3176 89.5394 97.8595 84.982C98.6189 82.7368 100.178 79.7455 101.492 77.9852C104.368 74.134 111.39 73.125 115.329 71.8447C121.49 74.3323 130.899 72.5729 138.342 72.8571C140.534 72.9408 142.248 74.5227 144.762 72.3838C144.667 68.2979 140.572 67.3933 138.28 65.8367C141.131 59.3942 147.273 53.4659 154.156 47.6539C154.173 46.2425 154.366 44.8582 154.021 43.3902L154.019 43.3916ZM29.1742 115.395C28.6189 111.065 31.2739 107.237 32.4504 103.177C33.0516 102.792 33.6377 102.446 34.0697 102.508C32.2679 106.777 31.501 111.208 29.1742 115.395ZM125.937 38.2668C126.068 37.9795 126.375 37.7203 126.82 37.482C131.501 37.8696 137.296 38.5762 142.267 40.4487C144.549 41.3079 147.787 41.8381 147.703 44.6188C146.615 44.4001 145.495 44.2715 144.786 43.0565C144.32 42.5732 143.489 43.0503 142.813 43.1173C137.844 40.2847 132.225 39.1655 126.29 38.8757L125.937 38.2668ZM137.116 44.2566C137.964 43.8967 137.787 43.3774 138.749 43.0358C139.177 43.108 139.449 43.5887 139.707 44.1079C138.572 44.8701 137.549 45.3402 137.116 44.2566ZM129.768 42.5548C133.179 40.5888 135.63 41.1518 137.248 43.908C134.908 47.1461 128.327 46.1034 129.768 42.5548ZM123.625 37.1678C123.807 37.7159 124.339 37.3431 124.464 38.0373C123.601 38.6015 122.986 38.5059 122.624 37.7494L123.625 37.1678ZM121.637 37.7801C120.705 38.3522 120.061 38.165 119.546 37.638C120.24 37.6941 121.385 36.5608 121.637 37.7801ZM128.18 46.7354C129.74 49.9305 121.806 51.643 122.428 54.6923C125.309 53.2203 128.268 51.1138 131.657 50.4149C134.075 47.875 138.449 45.7148 141.637 45.7013C142.807 48.1592 137.042 52.8627 133.5 55.3152C130.623 57.3082 127.537 58.2836 126.112 59.8802C125.361 60.7222 125.432 61.9255 124.568 62.4059C121.636 64.0358 119.039 59.5127 117.291 57.9486C117.041 56.9256 117.904 56.0768 116.877 54.932C116.948 51.0441 123.479 45.3463 128.18 46.7354ZM110.199 41.7118C110.586 42.2026 110.24 42.5795 109.552 42.9022C109.166 42.4117 109.512 42.0352 110.199 41.7118ZM115.885 45.7365C114.145 46.879 111.612 47.8978 112.707 49.4832C112.376 49.4992 112.177 49.1671 111.721 49.5136C111.542 50.6187 113.51 49.2769 112.796 50.7886C113.292 50.6731 114.85 49.1476 115.813 48.4929C116.104 49.2145 115.601 49.8124 115.637 50.4949C116.504 50.2786 117.85 47.7 119.655 47.6173C117.244 51.0241 114.068 54.9848 115.304 58.5601C116.092 60.8395 118.968 61.1903 120.725 63.2813C116.697 64.9888 114.532 61.7895 111.551 60.7411C110.017 58.1569 108.43 55.3273 108.689 52.3609C110.144 50.0508 112.173 45.476 115.885 45.7365ZM108.908 48.7053C107.576 49.8504 106.894 51.0969 106.348 52.3644C104.323 51.5615 107.102 46.6457 108.908 48.7053ZM106.791 54.279C107.184 55.0427 106.344 55.5107 106.351 56.9776C106.361 59.4019 107.355 58.9163 106.368 61.0392C105.841 62.1719 105.962 62.5877 104.484 62.4053C104.373 60.42 105.701 58.6591 105.129 56.602C104.305 56.4859 105.282 58.2159 103.598 58.5771C102.684 58.3797 103.306 57.3043 103.156 56.663C101.779 56.8838 102.376 58.9969 100.611 59.7703C99.6856 59.6039 100.276 58.6338 99.5495 57.9441C98.211 59.1495 97.8468 60.5073 97.1072 61.8062C96.1922 62.334 95.6488 61.8824 94.8846 62.0121C94.3354 61.4954 95.3446 61.2234 94.7954 60.7067C93.8255 60.4487 93.2563 61.8069 92.2932 62.1608C91.3571 61.1536 93.0149 60.5516 92.4825 59.6079C90.7708 59.0802 90.8974 61.5757 89.3331 62.2523C88.2161 60.9708 90.0886 60.1564 90.1558 59.06C88.2557 59.2605 87.7655 61.2655 87.3601 62.3131C86.6338 62.6843 86.089 62.5796 85.7697 61.8802C85.6223 60.8117 86.9619 59.9755 87.0778 58.9486C85.3945 58.7867 84.5727 61.6816 84.3858 62.9558C83.4423 63.3553 83.3 62.0124 83.1923 61.4779C81.8415 62.1893 82.8651 63.2717 82.0159 64.0614C80.5435 64.8577 79.7416 63.8879 78.8351 63.1956C79.2617 62.7526 79.4553 61.9841 80.2185 62.1202C79.1015 60.7381 79.277 58.7061 80.6874 58.3192C81.0177 58.8013 81.0474 59.2364 80.7765 59.6246C81.3399 60.1957 82.1741 60.052 82.9853 59.9696C83.7461 58.927 81.3703 57.7076 83.6901 56.5745C84.1944 57.4712 84.6194 58.5769 85.6198 58.1674C86.1251 56.9549 85.4232 55.5538 87.1926 54.5392C87.9983 54.5997 87.4724 56.1245 88.5041 56.22C89.488 55.4509 88.9388 54.4434 89.3123 53.5789L91.314 52.4157C92.3043 53.6158 91.5263 54.5401 92.2141 55.6926C93.8421 54.6554 91.7613 53.0389 93.7873 52.0641C94.3617 52.8918 93.6063 53.5118 94.466 54.384C96.3304 52.9533 95.2774 51.067 97.4227 49.6802C99.6733 51.68 97.6575 55.2309 100.181 57.3063C102.186 56.1618 99.3641 55.3622 99.1626 53.8264C100.637 52.7653 98.9176 51.2051 99.999 50.0831C101.42 49.8539 100.624 51.8157 101.428 51.9668C103.193 50.8895 102.457 49.4216 103.988 48.3078C104.688 49.1662 104.096 51.3795 104.86 52.687C105.216 53.2934 106.363 53.4473 106.791 54.279ZM102.762 62.3203C102.64 62.1271 102.364 62.3408 102.143 62.4082C101.117 61.486 101.914 60.1542 103.187 60.1732C103.822 61.01 103.925 61.7637 102.762 62.3203ZM99.816 61.8601C98.9664 62.252 97.88 61.568 98.1226 60.6727L98.8727 60.2368C99.3187 60.5686 100.687 61.0933 99.816 61.8601ZM61.563 59.3891C60.7332 59.9975 61.2117 60.8102 60.0329 61.364C61.7381 57.9467 67.8366 51.8865 72.6159 51.3378C68.5298 53.1032 65.161 58.1624 61.563 59.3891ZM70.0873 58.5067C68.7605 58.9786 68.4086 57.2463 68.5401 56.4202L69.2907 55.984C69.7071 56.23 70.4594 57.8031 70.0873 58.5067ZM64.5221 59.2977C65.0647 58.8959 65.5017 58.772 65.8911 58.7736C66.5073 59.7309 66.5061 60.5917 66.8056 61.4994C65.0842 62.2271 65.2946 60.3716 64.5221 59.2977ZM71.042 54.9661C72.1401 54.2998 72.5234 55.5151 73.501 55.1658C73.9048 54.6139 72.6656 53.805 73.4263 53.3092C74.6034 52.606 74.7793 54.5384 76.0032 53.7118C76.7022 55.6648 71.8764 57.6248 70.881 56.4169C70.8973 55.9279 71.1404 55.4739 71.042 54.9661ZM82.2298 51.1792C80.1514 53.3721 78.0529 50.2674 79.7104 48.5717C80.3751 49.5223 80.5774 50.9134 82.2298 51.1792ZM83.7737 48.6535C85.0228 47.6183 84.5405 46.313 85.8336 45.285C85.8436 46.4554 85.9382 47.6383 86.6014 48.9104C84.9703 50.4882 84.0385 49.9982 82.3766 50.2797C81.3632 48.9533 81.3903 47.7892 82.7126 46.8272C83.277 46.9369 83.0885 47.9699 83.7737 48.6535ZM90.8407 46.9898C90.6233 47.5708 89.4656 48.0049 88.7066 48.5013C86.6351 47.8633 87.1132 45.2744 88.8223 44.0912C88.9649 45.815 89.6198 45.9699 90.8407 46.9898ZM93.5068 48.6978L93.8605 49.3065C93.387 49.6964 93.1171 49.5524 92.7412 49.6855C92.5943 49.2936 92.903 48.9728 93.5068 48.6978ZM91.6202 45.4512C92.2969 43.4825 94.7539 45.0874 94.1827 46.405C93.0612 46.7909 92.0482 46.891 91.6202 45.4512ZM97.4301 35.2893C94.7654 34.7477 91.4939 33.1593 89.757 31.8767C92.6425 32.1514 95.1784 33.3451 97.4301 35.2893ZM92.5144 39.5029C89.7593 37.3452 84.6327 36.9839 80.9103 35.6604C81.0302 35.4024 81.4117 34.9466 81.6604 35.2245C86.5649 35.1568 91.4138 37.9389 95.1063 39.3541C89.4918 40.21 83.7152 45.6222 78.6202 47.8483C77.9412 48.1451 77.0945 48.6043 76.3976 48.0542C81.1685 44.9521 86.1768 41.3405 92.5144 39.5029ZM76.5616 51.2165C77.6964 51.1367 78.3152 52.4176 79.2276 52.9245C77.5227 54.2409 76.2867 52.1391 76.5616 51.2165ZM74.6147 45.5621C71.0642 45.4979 67.3899 45.7601 63.7634 45.8962C67.1063 44.4548 71.8075 43.8802 74.6147 45.5621ZM59.4663 50.0213C62.8765 48.7703 66.8733 48.625 68.7127 49.8055C65.762 50.5582 63.5554 49.3518 60.3062 50.8905C60.1244 50.3425 59.5927 50.7152 59.4663 50.0213ZM63.5468 54.1646C60.7556 55.0107 58.4011 54.7068 55.4941 55.8584C56.2711 53.2609 61.5729 53.4168 63.5468 54.1646ZM59.4746 63.8597C60.1947 64.7017 61.1706 64.8703 62.2873 64.6681C63.2115 63.543 61.0612 62.9914 61.741 62L62.4916 61.5638C62.888 63.2419 65.0058 62.6011 65.0254 63.62C63.01 66.6233 57.3016 67.5052 59.4746 63.8597ZM56.693 66.5618C57.8398 66.6237 58.5503 67.8321 59.4769 68.4726C57.4814 69.6334 56.183 68.0111 56.693 66.5618ZM54.6487 69.3788C55.8211 69.2015 56.6058 70.0443 57.3148 71.0868C55.9023 72.8129 53.7796 70.9205 54.6487 69.3788ZM52.221 72.689C53.6828 72.0918 54.7554 72.5192 55.7845 73.0612C54.1966 74.4097 53.0744 74.4058 52.221 72.689ZM53.99 75.7332C52.8204 76.4156 52.0887 75.9462 51.4131 75.3306C52.5342 74.7735 53.3932 74.9077 53.99 75.7332ZM50.2368 77.9141C51.2628 77.0589 52.3078 77.8518 52.063 78.7529C51.4588 79.1459 51.1032 78.8843 50.5761 79.0741C50.0358 78.6207 50.6229 78.3434 50.2368 77.9141ZM48.4416 80.5859C49.4358 80.0217 50.1721 80.1367 50.6503 80.9309C50.0998 82.2155 48.0092 81.8889 48.4416 80.5859ZM47.5296 82.4724C48.5478 81.9124 49.7843 82.7082 49.5916 83.717C48.3176 84.6242 47.5831 83.3206 47.5296 82.4724ZM46.7219 85.1132C47.7705 84.1386 49.2435 85.4999 48.4158 86.3003C47.5624 86.7012 46.581 85.7408 46.7219 85.1132ZM45.016 89.0909C45.9868 88.5884 46.6732 88.8348 47.0925 89.7843C46.6287 90.0193 46.7086 90.3393 46.2095 90.5688C45.5141 90.3152 44.9996 89.9531 45.016 89.0909ZM46.166 92.222C45.1486 92.5723 45.0414 93.355 44.4145 93.2398C44.0522 92.3114 43.3191 92.3603 42.8529 91.7044C44.2116 91.2083 45.0492 92.0832 46.166 92.222ZM49.3454 140.317C48.6824 142.624 49.9195 146.171 46.8172 147.486C47.5078 145.184 47.404 141.813 49.3454 140.317ZM97.2971 82.8675C95.345 86.8427 96.3691 93.1743 90.1326 93.0022C90.7975 87.5102 92.4074 82.1652 99.281 77.6431C100.355 79.1139 98.3567 80.708 97.2971 82.8675ZM143.051 71.7508C139.304 72.7559 135.704 71.0734 131.611 71.0703C129.288 71.0691 127.061 71.955 124.559 72.1831C121.087 72.499 118.109 70.6504 114.987 70.6878C112.239 70.7205 108.377 72.3126 105.802 73.3113C103.255 74.2991 99.4816 75.7048 96.6898 77.7919C95.4442 78.7227 94.3747 80.6708 94.012 81.2479C93.1357 82.6427 91.1977 84.4469 90.3047 86.3878C88.9376 89.3582 88.8927 93.7859 84.8168 93.6478C84.5884 92.567 86.1604 91.7672 85.3893 90.6009C84.3526 91.2446 84.8703 93.0942 83.1086 93.0119C82.5856 91.4543 84.4427 90.2688 84.6962 88.8321C83.1056 89.8136 83.2766 91.0702 81.9006 92.0853C81.6308 90.1367 83.5438 88.5292 84.5036 86.7728C82.1297 87.6099 82.7421 89.7642 80.7215 90.0562C79.3755 87.2635 84.2978 85.4492 83.8682 82.7992C82.1949 83.0901 82.1628 84.4676 81.087 85.5011C77.1906 89.2434 71.8979 91.3803 68.5329 94.4248C67.3199 94.196 65.7551 94.8933 65.1162 93.153C63.3202 94.5382 65.78 95.4629 66.5167 96.1391C64.9275 98.5967 62.316 100.895 62.1334 103.572C62.5684 104.193 62.1897 104.688 62.8265 105.341C61.6334 110.155 67.2857 115.107 63.571 119.294C62.7072 118.114 62.4106 117.022 62.3027 115.959C61.0092 116.355 60.8864 115.658 60.0939 115.614C60.2334 116.14 59.288 117.44 58.6961 117.241C58.3035 115.212 59.3934 113.414 59.3403 111.438C58.7615 111.514 58.8574 112.531 58.3394 112.019C57.5495 109.682 60.2738 107.894 59.2485 105.519C55.0574 112.479 53.1652 121.532 59.9985 128.698C61.735 130.519 64.9275 131.462 67.2891 132.605C69.8445 133.84 72.6165 133.475 75.1378 134.015C80.0698 135.073 85.4498 138.112 88.511 140.901C89.3609 141.668 90.8587 145.817 91.2427 146.659C91.6268 147.502 90.9939 148.04 90.3809 147.075C89.8703 146.271 86.8285 142.557 85.8311 141.344C85.5043 140.766 84.6603 140.303 84.3441 140.065C81.7269 138.099 77.2717 137.48 74.6979 136.713L73.9472 137.15C77.7442 138.366 82.3011 139.946 85.0251 142.568C85.0374 142.587 85.0474 142.607 85.0626 142.624C85.5507 143.193 87.4685 146.041 87.4685 146.041L87.1357 146.192C86.8029 146.343 82.6735 143.757 82.6735 143.757L82.6465 143.78C79.2688 142.145 76.0331 140.135 72.0197 140.17C73.9096 141.997 80.1576 141.856 80.754 145.409C80.754 145.409 81.0527 146.573 80.8768 146.633C80.701 146.693 79.385 145.933 79.385 145.933C75.7302 144.432 72.6738 141.356 68.5452 141.103C71.098 143.982 75.7443 144.028 77.5009 147.298L77.3693 147.648L76.6087 147.573C76.6168 147.558 76.6253 147.547 76.6329 147.531C72.4737 147.367 68.2399 140.658 63.8636 141.109C66.0505 142.884 69.5602 143.904 70.8752 146.263C67.7014 146.575 66.3185 142.175 62.9518 142.996C64.4559 144.513 66.4296 144.79 67.7835 146.703C67.5271 147.122 65.903 147.852 65.2957 147.605C64.7112 146.748 63.9837 146.268 63.5126 145.113C62.0282 145.988 63.8845 147.385 63.7943 148.478C63.0275 149.169 61.8933 149.803 61.0295 150.479C60.9588 150.483 60.9107 150.488 60.9107 150.488C60.9107 150.488 57.9795 153.011 58.2713 154.647C58.563 156.284 58.5622 156.283 58.5622 156.283C58.5622 156.283 59.1379 158.41 58.9083 159.528C58.6786 160.646 59.3915 161.873 56.5579 160.402C53.7244 158.931 52.7297 157.636 51.9454 156.287C51.1611 154.937 50.5297 151.572 50.5297 151.572C50.4418 150.682 49.9828 149.779 49.9836 148.904C49.9851 144.582 51.6528 140.739 54.0992 137.555C53.1278 134.786 52.1035 131.779 50.0011 129.35C49.9189 128.784 50.6969 128.352 50.4124 127.754C49.6645 127.841 48.8308 128.153 48.3218 127.612C48.2756 126.529 50.3657 126.86 50.22 125.695C49.5097 125.512 48.3211 126.588 47.8792 125.699C48.0163 125.167 48.8089 124.737 49.0268 124.218C48.586 123.326 47.3252 124.592 47.0826 123.176C47.8868 122.625 49.4092 122.186 48.7306 121.404C47.7981 121.227 47.3824 122.667 46.6256 121.813C46.0021 120.978 45.782 120.206 45.9469 119.493C47.6083 119.481 48.6526 118.776 50.9226 117.688C49.2948 117.291 45.8419 119.17 45.6508 116.68C47.4908 115.771 48.405 117.301 50.4796 115.774C48.6089 115.565 46.6075 115.701 45.2223 114.215C47.1074 111.623 49.1132 115.458 50.9196 113.075C49.4666 112.678 46.8123 113.332 47.2815 110.847C46.6183 110.539 45.6144 111.128 45.3374 109.805C45.6995 108.843 46.4884 109.38 47.2068 108.99C46.6247 108.083 45.3723 107.935 45.9098 106.758C46.8686 106.117 47.4391 106.496 48.3976 105.855C48.4624 104.947 45.5716 105.528 46.4823 103.711C47.4458 103.399 48.3239 103.311 49.3383 102.866C50.2511 104.398 51.6944 104.534 53.5055 103.701C51.2605 102.905 47.7992 102.686 46.6867 100.607C47.8821 100.026 48.7153 100.399 49.9107 99.8189C49.231 99.1677 47.3639 98.6953 48.1276 97.3264C49.0908 97.0161 49.7101 97.609 50.8512 96.8294C50.9078 95.2516 48.784 94.8499 49.8332 93.3495C50.6811 93.1899 52.1341 94.1098 52.8071 92.7071C51.9749 92.3934 50.543 91.5228 51.1419 90.4175C52.1094 90.4372 52.9878 90.6913 54.3659 89.6298C54.6274 88.5414 52.3475 87.5891 52.7295 86.2378C54.1894 85.9878 55.0735 87.2536 56.9257 85.9709C56.4862 84.4202 53.711 84.604 54.671 82.6669C56.0598 82.0906 56.5931 83.7655 58.2487 82.4879C57.6445 81.5237 55.5531 81.3254 56.3478 79.7926C57.245 80.3395 58.3272 80.3982 59.6754 79.759C59.9953 78.3211 57.0454 77.4182 58.9076 76.1336C59.713 76.9221 60.7222 77.1743 62.1029 76.4483C62.3565 75.2395 59.8565 75.2033 60.2019 73.753C61.2814 73.633 62.8975 74.3129 63.6617 73.3711C63.1356 72.6205 61.472 72.6796 62.2324 71.4874C63.5329 70.9726 64.0148 72.6118 65.4277 71.8021C66.2214 70.8088 63.4477 69.908 65.0136 68.7855C66.2123 68.711 66.5247 70.9684 68.1945 69.6514C67.8071 68.4413 67.3223 66.3757 68.7813 66.0532C69.0878 67.4856 70.8817 67.8811 71.2718 69.7631C73.5308 68.4018 72.9229 71.8042 75.0566 71.0923C74.2876 70.1193 73.2728 69.7482 73.1557 68.3971C72.5347 68.8343 72.0368 68.9483 71.8011 68.3699C72.3427 66.71 69.9484 65.6556 71.666 64.1056C73.174 65.0806 73.9592 65.7226 74.7749 67.7275C75.1302 67.9898 75.9528 67.0221 76.2618 67.4063C76.8549 68.0694 77.0687 69.7309 78.0592 69.3475C78.9028 67.9457 76.9543 67.5913 76.9233 65.6647C76.1456 66.0436 75.7295 67.1178 75.0539 66.4796C74.7283 64.7218 73.2454 63.6519 74.4327 61.9547C75.1407 61.9731 75.342 63.3252 75.9943 63.4901C77.2418 62.452 75.5183 59.9758 78.186 59.7737C77.2357 62.1643 77.6868 65.1123 80.7512 65.3402C86.5555 63.3861 91.1992 63.0446 96.5775 63.2007C101.492 63.3427 105.385 63.8612 108.593 65.447C104.099 65.813 100.34 64.246 95.798 64.7393C99.3635 66.4736 104.178 64.9216 107.564 67.1309C103.257 68.9668 95.6346 69.3875 91.99 73.7379C98.53 70.5997 105.004 68.3183 111.495 67.5606C111.184 66.9397 109.935 66.5513 110.802 65.7922C115.771 67.5956 121.155 71.0461 126.985 68.874C123.782 67.9834 118.289 68.2838 114.734 66.2216C113.232 65.3509 110.105 63.1106 111.035 61.585C113.302 62.4534 114.847 64.4721 117.104 65.1159C119.304 65.7433 122.038 64.859 124.231 65.86C126.9 67.0788 128.87 67.5086 132.505 65.1236C135.68 67.58 142.123 66.7901 143.051 71.7518L143.051 71.7508ZM137.57 64.6222C136.342 65.7333 134.989 65.2463 135.243 64.0742C136.42 63.2003 137.137 63.5368 137.57 64.6222Z" fill="#0146AE"/>
</g>
<defs>
<clipPath id="clip0_83_138">
<rect width="150" height="112.5" fill="white" transform="translate(0 75.364) rotate(-30.1607)"/>
</clipPath>
</defs>
</svg>
