<svg width="174" height="174" viewBox="0 0 174 174" fill="none" xmlns="http://www.w3.org/2000/svg">
<path d="M24.7632 118.576C23.9952 118.576 23.3766 118.064 22.9072 117.04C23.8459 115.589 24.9126 111.728 26.1072 105.456C27.3446 99.1413 28.3899 92.6133 29.2432 85.872C30.0966 79.2587 30.5659 74.864 30.6512 72.688L28.3472 72.88C28.0486 72.9227 27.6006 72.944 27.0032 72.944C24.6992 72.944 23.5472 72.2827 23.5472 70.96V70.64L24.3792 69.616V69.552C24.8912 69.7227 25.5099 69.808 26.2352 69.808C26.9179 69.808 27.9206 69.68 29.2432 69.424C30.7366 69.2107 31.7392 69.104 32.2512 69.104C32.7632 69.104 33.1686 69.296 33.4672 69.68C33.8086 70.0213 33.9792 70.448 33.9792 70.96C33.9792 82.1813 31.6112 96.9653 26.8752 115.312L28.2832 115.248C28.8379 115.163 29.4992 115.12 30.2672 115.12C32.5286 115.12 33.6592 115.76 33.6592 117.04V117.36L32.6352 118.32L28.7312 118.448C27.5366 118.533 26.2139 118.576 24.7632 118.576ZM60.6507 118.576C59.6694 118.576 58.9441 118.427 58.4747 118.128C58.0054 117.829 57.7707 117.275 57.7707 116.464C57.7707 115.184 57.5574 113.008 57.1307 109.936L56.8747 108.592L50.5387 107.632C50.2827 108.613 49.9201 110.597 49.4507 113.584C49.1947 115.675 48.7894 117.061 48.2347 117.744C47.9361 118.128 47.5094 118.32 46.9547 118.32C46.4427 118.32 45.9734 118.171 45.5467 117.872C45.1201 117.531 44.9067 117.125 44.9067 116.656L45.0347 116.336L45.0987 116.08C47.9147 105.115 50.0481 94.2987 51.4987 83.632C51.4987 83.4613 51.5201 83.184 51.5627 82.8C51.6054 82.3733 51.6481 81.776 51.6907 81.008C51.8187 79.4293 51.9467 78.1707 52.0747 77.232C52.2454 76.2933 52.5014 75.5893 52.8427 75.12H55.0187C55.6161 75.12 56.1281 75.2693 56.5547 75.568C56.9814 75.824 57.1947 76.208 57.1947 76.72C57.1947 79.9627 57.6427 84.784 58.5387 91.184C59.3921 97.7547 59.8187 102.363 59.8187 105.008C59.8187 105.264 59.9254 105.925 60.1387 106.992C60.3521 107.973 60.4587 108.613 60.4587 108.912C60.4587 109.211 60.6721 110.491 61.0987 112.752C61.4827 114.8 61.6747 116.123 61.6747 116.72V116.784C61.6747 117.723 61.3334 118.32 60.6507 118.576ZM56.4267 106.288C56.2987 105.648 56.2347 104.859 56.2347 103.92C56.2347 100.08 55.8934 95.1733 55.2107 89.2L54.5707 82.544C52.7361 92.5707 51.4774 100.144 50.7947 105.264C51.4347 105.691 53.3121 106.032 56.4267 106.288ZM55.2107 71.792C54.2294 71.792 53.3547 71.5787 52.5867 71.152C51.8614 70.6827 51.3067 70.0427 50.9227 69.232C50.1547 67.7387 49.7707 66.0533 49.7707 64.176C49.7707 63.92 49.8774 63.7067 50.0907 63.536C50.3467 63.3227 50.6454 63.216 50.9867 63.216C51.4561 63.216 51.8827 63.4933 52.2667 64.048C52.6507 64.6027 52.9494 65.264 53.1627 66.032C53.3761 66.8 53.6534 67.4613 53.9947 68.016C54.3361 68.5707 54.6774 68.848 55.0187 68.848C55.7014 68.848 56.2347 68.528 56.6187 67.888C57.0027 67.248 57.1947 66.5867 57.1947 65.904C57.1947 65.0507 57.3227 64.432 57.5787 64.048C57.8347 63.664 58.3041 63.472 58.9867 63.472C59.4561 63.472 59.8614 63.6427 60.2027 63.984C60.5441 64.2827 60.7147 64.6453 60.7147 65.072C60.7147 65.6267 60.6721 66.16 60.5867 66.672C60.2454 68.208 59.6267 69.4453 58.7307 70.384C57.8347 71.3227 56.6614 71.792 55.2107 71.792ZM76.8317 116.976L76.7677 114.48C76.7251 113.755 76.7037 112.944 76.7037 112.048L76.7677 109.872C76.6397 109.403 76.3197 104.731 75.8077 95.856C75.2957 86.9813 74.9971 81.2853 74.9117 78.768C72.4371 78.6827 70.8584 78.4267 70.1757 78C69.7064 77.6587 69.4717 77.2747 69.4717 76.848C69.4717 76.5067 69.6851 76.208 70.1117 75.952C70.5811 75.6533 71.0504 75.504 71.5197 75.504C72.7144 75.504 74.1651 75.5893 75.8717 75.76C77.4931 75.9733 78.9437 76.08 80.2237 76.08H80.7357H81.2477C82.5704 76.08 83.2317 76.592 83.2317 77.616C83.2317 78.128 83.0184 78.5547 82.5917 78.896C82.1651 79.1947 81.6744 79.344 81.1197 79.344C80.7357 79.344 80.1811 79.28 79.4557 79.152L78.1757 78.896L78.1117 79.216L78.0477 79.536C78.0477 83.3333 78.4104 89.392 79.1357 97.712C79.8184 105.52 80.1597 111.579 80.1597 115.888C80.1597 116.4 79.9251 116.848 79.4557 117.232C79.0291 117.616 78.5384 117.808 77.9837 117.808L76.8317 116.976ZM102.551 118.96C101.527 118.96 100.609 118.725 99.7987 118.256C98.9881 117.829 98.3267 117.189 97.8147 116.336C96.7907 114.544 96.1294 112.517 95.8307 110.256C95.5321 108.293 95.3827 105.947 95.3827 103.216C95.2547 98.608 95.1907 92.976 95.1907 86.32L95.1267 81.392C95.0841 81.136 95.0627 80.7093 95.0627 80.112C94.9774 78.4907 94.9347 77.5093 94.9347 77.168C95.3187 76.272 95.7667 75.824 96.2787 75.824C96.7907 75.824 97.2387 76.208 97.6227 76.976C98.0494 77.744 98.2627 78.576 98.2627 79.472V96.88C98.2627 98.5867 98.4121 100.848 98.7107 103.664C99.0094 107.163 99.1587 109.424 99.1587 110.448C99.1587 113.605 100.503 115.184 103.191 115.184C106.263 115.184 107.799 103.707 107.799 80.752V77.168V76.592C107.756 76.464 107.735 76.2933 107.735 76.08C107.735 75.568 107.841 75.2053 108.055 74.992C108.311 74.736 108.78 74.608 109.463 74.608C110.017 74.608 110.444 74.7787 110.743 75.12C111.084 75.4187 111.297 75.7813 111.383 76.208C111.425 76.464 111.447 76.9547 111.447 77.68C111.447 78.3627 111.383 79.4507 111.255 80.944C111.084 82.1813 110.999 83.248 110.999 84.144C110.999 85.1253 110.956 86 110.871 86.768L110.743 89.456V89.968C110.785 90.1387 110.807 90.3307 110.807 90.544C110.807 109.488 108.055 118.96 102.551 118.96ZM142.38 118.192C141.868 118.192 141.484 118.064 141.228 117.808C140.972 117.509 140.78 117.019 140.652 116.336L140.268 115.12V114.992V114.8C140.268 113.392 138.796 108.592 135.852 100.4C132.95 92.208 130.668 86.1493 129.004 82.224V114.416L129.26 114.864C129.302 114.949 129.388 115.099 129.516 115.312C129.644 115.525 129.708 115.739 129.708 115.952C129.708 116.507 129.516 116.976 129.132 117.36C128.748 117.744 128.278 117.936 127.724 117.936C126.358 117.936 125.676 116.635 125.676 114.032L125.612 103.088C125.569 99.8027 125.548 96.1333 125.548 92.08C125.548 90.7147 125.612 88.7307 125.74 86.128C125.868 83.44 125.932 81.456 125.932 80.176C125.932 78.1707 126.7 76.592 128.236 75.44V75.824C128.492 75.7387 128.662 75.696 128.748 75.696C129.729 75.696 130.966 77.4027 132.46 80.816C133.654 83.5467 134.721 86.4267 135.66 89.456C136.641 92.4853 137.921 96.7947 139.5 102.384L140.14 104.688C141.121 108.144 141.868 110.619 142.38 112.112C143.233 102.939 143.66 92.1013 143.66 79.6V78.768C143.617 78.512 143.596 78.2347 143.596 77.936C143.596 76.656 144.108 76.016 145.132 76.016C145.729 76.016 146.177 76.2507 146.476 76.72C146.817 77.1893 146.988 77.7867 146.988 78.512V83.312C146.902 89.8827 146.646 97.008 146.22 104.688C145.793 112.368 145.281 116.699 144.684 117.68C143.446 118.021 142.678 118.192 142.38 118.192Z" fill="#DEB52D"/>
<path d="M51.5751 59.464C49.7965 59.464 48.9071 58.9807 48.9071 58.014L49.0231 50.88L49.1391 43.746C49.1391 41.1553 49.0811 37.2307 48.9651 31.972C48.8491 26.752 48.7911 22.8273 48.7911 20.198V19.85C48.7911 18.8447 48.8878 17.9167 49.0811 17.066C49.3131 16.022 49.9318 15.5 50.9371 15.5C53.6438 15.5 55.7898 16.37 57.3751 18.11C58.9605 19.85 59.7531 22.1507 59.7531 25.012C59.7531 26.752 59.2891 28.5693 58.3611 30.464C57.4331 32.3587 56.3311 33.77 55.0551 34.698C57.2978 36.206 58.9411 38.1587 59.9851 40.556C61.0678 42.9147 61.6091 45.5247 61.6091 48.386C61.6091 49.7393 61.1451 51.4213 60.2171 53.432C59.0958 55.8293 57.5685 57.55 55.6351 58.594C54.4751 59.174 53.1991 59.464 51.8071 59.464H51.5751ZM52.1551 33.828C53.1605 33.596 54.0111 32.7647 54.7071 31.334C55.2871 30.2513 55.8285 28.9367 56.3311 27.39C56.4471 26.9647 56.6405 26.4233 56.9111 25.766V23.736C56.9111 22.576 56.4858 21.4547 55.6351 20.372C54.7845 19.2893 53.8178 18.748 52.7351 18.748C52.1938 18.748 51.9231 19.3473 51.9231 20.546C51.9231 23.098 51.9618 25.3793 52.0391 27.39L52.1551 33.828ZM52.3871 56.448C54.2818 56.1773 55.7898 55.3073 56.9111 53.838C58.0325 52.3687 58.5931 50.6093 58.5931 48.56C58.5931 46.7813 58.4385 45.1573 58.1291 43.688C57.8585 42.18 57.4911 41.0393 57.0271 40.266C56.6018 39.5313 56.1765 38.9127 55.7511 38.41C55.3258 37.9073 54.9585 37.5787 54.6491 37.424L54.1851 37.25H52.0971C52.2905 41.6967 52.3871 48.096 52.3871 56.448ZM78.5714 59.522C77.6821 59.522 77.0248 59.3867 76.5994 59.116C76.1741 58.8453 75.9614 58.3427 75.9614 57.608C75.9614 56.448 75.7681 54.476 75.3814 51.692L75.1494 50.474L69.4074 49.604C69.1754 50.4933 68.8468 52.2913 68.4214 54.998C68.1894 56.8927 67.8221 58.1493 67.3194 58.768C67.0488 59.116 66.6621 59.29 66.1594 59.29C65.6954 59.29 65.2701 59.1547 64.8834 58.884C64.4968 58.5747 64.3034 58.2073 64.3034 57.782L64.4194 57.492L64.4774 57.26C67.0294 47.3227 68.9628 37.5207 70.2774 27.854C70.2774 27.6993 70.2968 27.448 70.3354 27.1C70.3741 26.7133 70.4128 26.172 70.4514 25.476C70.5674 24.0453 70.6834 22.9047 70.7994 22.054C70.9541 21.2033 71.1861 20.5653 71.4954 20.14H73.4674C74.0088 20.14 74.4728 20.2753 74.8594 20.546C75.2461 20.778 75.4394 21.126 75.4394 21.59C75.4394 24.5287 75.8454 28.898 76.6574 34.698C77.4308 40.6527 77.8174 44.8287 77.8174 47.226C77.8174 47.458 77.9141 48.0573 78.1074 49.024C78.3008 49.9133 78.3974 50.4933 78.3974 50.764C78.3974 51.0347 78.5908 52.1947 78.9774 54.244C79.3254 56.1 79.4994 57.2987 79.4994 57.84V57.898C79.4994 58.7487 79.1901 59.29 78.5714 59.522ZM74.7434 48.386C74.6274 47.806 74.5694 47.0907 74.5694 46.24C74.5694 42.76 74.2601 38.3133 73.6414 32.9L73.0614 26.868C71.3988 35.9547 70.2581 42.818 69.6394 47.458C70.2194 47.8447 71.9208 48.154 74.7434 48.386ZM93.4095 59.928C92.0175 59.464 90.2968 59.232 88.2475 59.232C87.6288 59.6187 86.9715 59.812 86.2755 59.812C85.8115 59.812 85.4055 59.5993 85.0575 59.174C84.7481 58.7873 84.5935 58.362 84.5935 57.898C84.5935 54.65 84.7288 50.3193 84.9995 44.906C85.2315 39.1447 85.3475 34.8333 85.3475 31.972V31.566C85.1155 29.13 84.9995 27.3127 84.9995 26.114C84.9995 22.4407 85.6761 20.604 87.0295 20.604C87.4161 20.604 87.7448 20.7587 88.0155 21.068C88.3248 21.3387 88.4795 21.6673 88.4795 22.054C88.4795 22.518 88.4215 23.2527 88.3055 24.258C88.1895 25.2247 88.1315 25.9593 88.1315 26.462C88.1315 29.0527 88.1508 31.392 88.1895 33.48C88.2281 35.5293 88.2475 37.8493 88.2475 40.44C88.0541 41.02 87.9575 41.832 87.9575 42.876V43.572L87.8415 48.154C87.7641 49.5073 87.7255 51.054 87.7255 52.794C87.7255 55.462 88.3635 56.796 89.6395 56.796C89.7168 56.796 89.8328 56.796 89.9875 56.796C90.1808 56.7573 90.4321 56.738 90.7415 56.738C91.0895 56.6993 91.5341 56.68 92.0755 56.68C94.1635 56.68 95.2075 57.26 95.2075 58.42C95.2075 58.8067 95.0335 59.1353 94.6855 59.406C94.3375 59.6767 93.9121 59.8507 93.4095 59.928ZM103.245 58.072L103.187 55.81C103.148 55.1527 103.129 54.418 103.129 53.606L103.187 51.634C103.071 51.2087 102.781 46.9747 102.317 38.932C101.853 30.8893 101.582 25.7273 101.505 23.446C99.2623 23.3687 97.8317 23.1367 97.213 22.75C96.7877 22.4407 96.575 22.0927 96.575 21.706C96.575 21.3967 96.7683 21.126 97.155 20.894C97.5803 20.6233 98.0057 20.488 98.431 20.488C99.5137 20.488 100.828 20.5653 102.375 20.72C103.844 20.9133 105.159 21.01 106.319 21.01H106.783H107.247C108.446 21.01 109.045 21.474 109.045 22.402C109.045 22.866 108.852 23.2527 108.465 23.562C108.078 23.8327 107.634 23.968 107.131 23.968C106.783 23.968 106.28 23.91 105.623 23.794L104.463 23.562L104.405 23.852L104.347 24.142C104.347 27.5833 104.676 33.074 105.333 40.614C105.952 47.69 106.261 53.1807 106.261 57.086C106.261 57.55 106.048 57.956 105.623 58.304C105.236 58.652 104.792 58.826 104.289 58.826L103.245 58.072ZM126.263 59.522C125.373 59.522 124.716 59.3867 124.291 59.116C123.865 58.8453 123.653 58.3427 123.653 57.608C123.653 56.448 123.459 54.476 123.073 51.692L122.841 50.474L117.099 49.604C116.867 50.4933 116.538 52.2913 116.113 54.998C115.881 56.8927 115.513 58.1493 115.011 58.768C114.74 59.116 114.353 59.29 113.851 59.29C113.387 59.29 112.961 59.1547 112.575 58.884C112.188 58.5747 111.995 58.2073 111.995 57.782L112.111 57.492L112.169 57.26C114.721 47.3227 116.654 37.5207 117.969 27.854C117.969 27.6993 117.988 27.448 118.027 27.1C118.065 26.7133 118.104 26.172 118.143 25.476C118.259 24.0453 118.375 22.9047 118.491 22.054C118.645 21.2033 118.877 20.5653 119.187 20.14H121.159C121.7 20.14 122.164 20.2753 122.551 20.546C122.937 20.778 123.131 21.126 123.131 21.59C123.131 24.5287 123.537 28.898 124.349 34.698C125.122 40.6527 125.509 44.8287 125.509 47.226C125.509 47.458 125.605 48.0573 125.799 49.024C125.992 49.9133 126.089 50.4933 126.089 50.764C126.089 51.0347 126.282 52.1947 126.669 54.244C127.017 56.1 127.191 57.2987 127.191 57.84V57.898C127.191 58.7487 126.881 59.29 126.263 59.522ZM122.435 48.386C122.319 47.806 122.261 47.0907 122.261 46.24C122.261 42.76 121.951 38.3133 121.333 32.9L120.753 26.868C119.09 35.9547 117.949 42.818 117.331 47.458C117.911 47.8447 119.612 48.154 122.435 48.386Z" fill="#030303"/>
<path d="M12.2992 124.992C12.7788 125.723 13.8042 127.3 17.0182 131.785C16.8795 132 16.7267 132.2 16.6066 132.427C17.0288 133.006 18.0778 134.352 18.044 134.309C17.9514 134.625 17.8589 134.941 17.7779 135.265C21.911 139.555 26.0608 143.941 30.9904 148.089C31.155 148.29 31.6568 147.877 32.3142 147.616C33.1481 148.361 34.1505 148.936 34.9905 149.674C34.892 149.804 34.2636 150.338 35.0765 151.017C38.9187 153.995 49.7728 159.887 59.4598 163.318C63.9839 164.853 64.2475 164.858 64.6651 163.809C69.9428 165.039 65.9737 164.648 69.9678 165.417C70.0837 165.66 70.2172 165.902 70.3298 166.146C74.4448 167.153 78.2428 167.088 81.2147 168.054C84.5488 169.162 86.6884 168.866 89.9522 168.96C90.5019 168.975 91.0715 168.815 91.3375 168.505C91.6004 168.201 91.8326 167.872 91.8668 167.519C91.9288 166.796 92.1101 164.632 91.6571 164.093C91.003 163.2 89.2073 163.076 88.0223 163.088C87.0882 163.065 85.2345 162.948 83.6915 163.017C81.3742 163.099 81.0681 163.892 71.9998 161.467C71.5501 161.614 71.1003 161.761 70.6512 161.908C69.6775 161.665 68.9047 161.362 67.8635 161.486C67.3762 161.399 66.4614 161.162 65.9807 161.037C65.9646 160.861 65.9494 160.675 66.0506 160.522C66.2132 160.279 66.1368 159.999 65.9738 159.773C65.5525 159.189 65.7925 159.608 59.8352 157.584C55.4152 156.083 49.4592 153.426 44.168 150.336C44.629 149.785 43.9495 150.346 45.5145 149.077C46.4414 148.353 46.6851 148.009 48.8252 148.203C55.094 148.527 56.3758 144.997 59.045 145.437C59.6459 145.538 59.4115 145.55 62.3719 146.981C63.0336 147.297 63.2453 147.35 63.3871 147.523C62.8174 148.582 62.0213 148.865 64.6406 150.181C66.073 150.894 68.1158 151.406 68.9103 150.114C70.853 147.173 71.0162 146.299 70.5196 145.612C69.7877 144.598 67.5201 144.054 66.2478 143.935C65.617 144.24 65.3596 144.843 64.9115 145.287C62.9653 144.485 60.436 143.372 58.6439 142.316C58.7744 142.186 59.5238 141.131 59.3644 140.176C59.2477 139.393 58.468 138.607 58.1892 138.522C57.6022 138.283 53.0852 137.958 52.174 137.577C51.1575 137.164 50.2406 135.838 49.7156 134.943C48.3178 132.434 48.5506 131.651 45.9045 129.443C44.8792 128.542 43.115 127.276 41.795 127.776C41.5623 127.835 41.5128 128.074 41.3887 128.233C40.5059 129.583 39.0656 130.555 37.3856 131.024C36.0249 131.421 37.2722 133.612 38.0421 134.595C38.7096 135.446 39.6422 136.087 39.9441 136.557C38.852 136.942 30.2085 135.583 29.2244 134.69C24.9783 130.65 20.16 124.864 16.9336 119.375C10.1409 108.074 6.60336 99.0467 6.25175 84.1226C6.56727 83.796 6.97772 83.4364 7.17872 82.9204C7.61882 81.803 6.68046 81.2394 6.26872 80.9117C5.7656 74.4509 8.26498 60.7657 11.8913 54.2996C12.9331 54.0786 14.1756 53.7315 14.3402 52.7616C14.4594 52.0597 13.9939 51.7754 13.5952 51.202C18.6355 40.5256 26.0682 31.9477 28.2877 30.1223C29.6093 30.2215 30.2512 30.1368 30.7243 29.6582C31.4234 28.9409 31.6584 28.3536 30.9007 27.9014C36.6018 22.1904 44.8996 16.3392 52.6232 12.9318C52.9413 13.0899 53.0493 13.4053 53.3908 13.5444C54.8861 14.2142 56.0599 13.5601 56.2184 12.8705C56.2934 12.4616 56.0908 12.1116 55.934 11.7659C55.9698 11.7335 56.0404 11.6695 56.0756 11.6377C59.0051 10.1701 69.9601 6.17576 73.6689 5.96522C73.9545 6.28582 74.1454 6.66492 74.5769 6.90104C75.3052 7.29467 76.2173 7.40729 76.9633 6.79281C77.3812 6.42349 77.3991 5.94878 77.2849 5.31055C79.3675 4.68789 83.2955 4.33715 85.4663 4.11734C89.0363 3.81249 88.0374 3.54953 88.9046 4.5021C89.9671 5.66916 92.072 5.01901 91.8857 3.18052C91.8388 2.71699 92.2811 2.88912 92.8109 2.90003C145.475 3.98423 181.089 47.8017 170.103 92.763C169.558 94.9179 169.676 95.3205 167.718 96.0413C164.807 97.1093 164.851 97.8187 164.125 98.8938C163.607 99.0129 163.008 99.1148 162.701 99.5684C161.792 99.6728 161.334 99.909 161.069 100.591C160.729 100.778 160.349 100.896 160.063 101.158C159.341 101.841 158.971 102.59 159.602 103.335C158.714 103.8 157.548 104.54 157.136 103.358C157.053 103.13 157.048 102.879 157.145 102.658C157.233 102.412 157.601 101.814 156.743 101.648C156.289 101.766 156.185 102.454 156.18 102.812C155.687 102.721 155.185 102.862 154.734 103.011C153.563 103.442 152.889 104.655 150.799 107.632C146.435 113.932 144.211 122.545 143.662 124.049C140.104 133.711 141.382 133.331 138.214 139.577C136.627 142.671 135.77 143.777 134.615 145.108C132.684 147.288 132.378 147.521 131.766 147.903C130.52 148.652 128.456 149.285 127.443 149.528C121.642 150.939 124.999 150.113 121.489 150.696C120.007 150.918 115.752 150.707 115.204 150.654C112.862 150.427 112.526 149.86 112.225 150.336C111.868 150.904 112.698 152.175 113.192 152.65C113.72 153.15 114.617 153.635 114.711 153.968C113.164 154.247 108.624 151.829 109.389 149.554C109.676 148.688 110.436 147.711 111.096 146.286C112.017 144.294 112.082 142.812 112.369 141.218C112.927 138.108 114.344 135.217 113.409 135.12C112.34 134.968 112.425 135.97 111.956 136.707C111.091 138.07 109.385 138.311 108.072 138.785C106.565 139.269 106.346 139.093 105.273 139.191C104.48 139.261 103.61 139.379 102.197 138.757C99.6903 137.6 100.091 136.136 98.1277 135.88C96.7562 135.714 96.6668 136.088 94.849 134.755C93.5706 133.8 92.6645 132.92 92.4259 132.73C92.1435 132.487 91.628 132.652 91.6122 133.076C91.633 133.391 91.7983 134.055 91.9921 134.766C93.181 139.146 93.8506 144.55 95.7836 151.919C96.6011 155.025 96.6261 154.793 96.4516 154.931C96.0656 154.797 95.7868 154.529 95.4529 154.33C93.625 153.248 93.7929 152.873 93.195 152.457C92.2465 151.764 91.8692 152.364 91.8776 152.789C91.9109 153.685 95.2589 158.97 98.7154 162.307C100.25 163.783 101.889 165.114 103.568 166.338C106.981 168.852 108.854 169.636 111.452 170.292C115.587 171.364 120.451 171.679 124.614 171.355C130.032 170.939 132.934 169.971 134.898 169.4C135.946 169.074 135.642 170.133 136.584 170.252C137.291 170.357 137.545 171.07 138.497 171.42C139.346 171.77 140.294 171.335 140.648 171.432C140.988 171.548 140.874 171.892 140.949 172.135C141.055 172.782 141.658 173.199 142.385 173.348C143.249 173.528 143.868 173.251 144.289 173.356C144.885 173.48 145.069 174.185 146.815 173.954C150.278 173.517 151.54 170.912 153.215 167.821C158.267 158.471 166.963 146.052 169.588 137.082C171.079 131.978 171.574 124.166 170.131 118.606C168.549 112.58 165.039 107.318 162.939 105.462C163.229 105.226 163.467 104.937 163.758 104.697C164 104.614 164.786 104.667 165.203 103.877C165.319 103.685 165.4 103.447 165.633 103.354C166.222 103.075 166.623 102.557 166.785 102.006C168.738 100.889 169.149 100.753 169.595 99.8748C169.962 99.1719 171.79 93.0649 172.045 91.9989C180.256 59.7064 162.15 23.5244 126.237 8.2906C108.159 0.625243 91.4437 1.32442 91.4914 1.33716C91.2398 1.27009 91.2671 1.04789 91.1579 0.874498C90.4014 -0.32632 89.1061 -0.0989454 83.454 0.423403C74.1664 1.28897 72.1977 1.96552 69.3798 2.6125C43.4229 8.30074 17.2529 27.7067 6.91636 51.8662C2.78035 61.8132 0.546527 71.8476 0.0611356 80.891C-0.559943 95.3678 3.55337 110.961 12.2992 124.992ZM69.3922 162.58C70.3648 162.775 71.0868 163.035 71.8039 163.201C71.5998 163.739 71.4576 164.292 71.2711 164.834C70.4857 164.634 69.6823 164.49 68.9014 164.279C69.0934 163.72 69.2131 163.142 69.3922 162.58ZM65.0173 161.802C65.4077 161.925 67.5945 162.542 67.6422 162.555C67.8373 162.923 67.6541 163.263 67.5463 163.594C67.4986 163.582 65.7611 163.16 64.732 162.866C64.5902 162.464 64.7911 162.115 65.0173 161.802ZM56.9137 140.279C57.0288 140.026 57.0782 139.752 57.1899 139.498C57.4439 139.59 57.7043 139.661 57.9606 139.745C57.7536 140.52 57.9437 140.27 56.0806 143.282C55.6416 143.891 55.7228 143.958 54.1503 145.399C53.9321 145.581 53.3048 146.343 52.0017 146.492C54.3999 144.053 55.9107 142.571 56.9137 140.279ZM160.699 102.291C160.846 102.106 161.054 101.975 161.287 101.897C162.699 104.101 162.358 103.377 162.899 104.15C162.585 104.523 162.699 104.579 162.201 104.606C161.842 104.381 160.983 103.111 160.759 102.718C160.685 102.585 160.678 102.434 160.699 102.291ZM159.202 104.839C158.789 105.345 158.703 105.641 158.568 106.373C158.092 105.694 158.415 105.249 159.202 104.839ZM158.376 107.339C158.322 107.715 158.232 108.086 158.144 108.46C157.58 108.447 157.458 106.926 157.459 106.46C157.716 106.79 158.005 107.11 158.376 107.339ZM155.546 103.587C156.422 103.79 156.373 104.95 156.305 105.711C156.114 108.003 157.012 109.167 156.229 110.242C156.124 110.365 156.003 110.507 155.821 110.528C155.609 110.554 155.423 110.406 155.335 110.244C154.563 108.945 154.224 108.398 154.231 107.251C154.198 104.695 155.188 103.585 155.546 103.587ZM153.001 109.5C153.047 109.515 153.141 109.544 153.188 109.558C153.511 110.213 153.674 111.415 154.173 112.49C154.269 112.716 154.424 112.929 154.466 113.172C153.853 113.62 153.232 113.55 152.558 114.29C152.406 114.457 152.263 114.634 152.09 114.782C151.556 114.281 152.22 111.125 153.001 109.5ZM114.046 151.948C114.217 151.636 114.218 151.813 116.941 151.906C117.954 151.937 119.632 151.91 119.999 152.089C119.971 152.114 119.914 152.163 119.886 152.187C117.373 152.565 116.369 152.255 115.141 152.419C114.673 152.479 114.267 152.234 114.046 151.948ZM110.303 153.577C113.839 156.551 119.457 155.272 119.604 155.265C120.475 155.199 121.19 155.076 122.404 154.679C141.941 148.19 141.266 132.517 146.545 122.046C147.156 120.804 147.509 120.668 147.557 120.205C147.39 119.904 146.97 119.911 146.669 119.801C146.563 119.592 146.628 119.604 147.635 117.052C148.619 114.505 148.563 114.067 151.173 109.495C152.187 107.726 152.18 107.309 152.556 107.23C153.037 107.551 151.265 110.137 150.794 113.003C150.693 113.669 150.652 115.43 150.75 116.242C150.896 117.464 151.213 117.561 150.162 120.236C149.392 122.1 147.974 123.993 147.282 127.916C145.807 135.888 148.52 136.845 150.894 138.02C151.581 138.355 152.686 137.587 152.032 137.318C150.807 136.763 149.233 136.255 148.47 133.844C148.344 133.439 148.413 132.984 148.415 132.552C148.433 132.536 148.471 132.502 148.49 132.485C148.611 132.955 148.674 133.521 148.835 134.052C149.271 135.483 150.945 136.572 152.345 135.338C152.633 135.093 153.115 133.773 153.204 133.492C153.326 133.083 153.545 133.121 154.031 133.076C157.379 132.665 157.517 132.573 157.747 132.378C157.829 132.266 157.986 132.112 157.881 132.007C157.584 131.633 157.521 131.873 155.285 132.173C154.249 132.292 152.198 132.76 151.317 130.979C150.488 129.423 149.981 127.746 149.79 126.017C149.502 123.455 149.933 123.292 151.053 120.953C151.935 118.997 151.901 118.672 152.157 117.905C152.789 117.945 153.173 118.566 155.289 117.335C155.518 117.211 155.701 116.947 155.994 117.012C155.989 117.071 155.984 117.132 155.978 117.196C154.122 120.1 150.685 121.783 150.415 125.046C150.247 126.392 150.725 129.198 151.935 130.985C152.336 131.617 153.37 131.6 153.837 130.929C154.288 130.385 154.94 127.758 155.167 127.558C155.719 127.371 158.046 127.265 160.159 125.323C160.578 124.928 161.016 124.367 161.24 124.655C161.307 124.799 161.392 126.114 160.958 128.3C157.67 144.161 142.879 158.349 123.738 161.506C118.334 162.4 113.13 162.058 112.451 161.65C112.693 161.361 114.688 161.395 115.916 161.266C119.062 160.977 124.866 159.568 127.897 158.286C141.592 152.611 148.746 142.37 148.993 141.239C148.951 140.746 148.077 140.946 147.746 141.574C142.126 150.249 128.89 159.349 115.386 160.344C113.886 160.428 112.173 160.426 111.672 160.439C110.379 160.467 110.45 159.696 109.978 159.264C108.41 157.688 107.691 158.9 107.644 158.049C107.523 156.708 107.396 155.332 107.787 153.981C108.016 153.232 108.084 152.456 108.447 151.739C108.654 151.74 109.361 152.796 110.303 153.577ZM109.277 165.589C108.255 164.132 107.233 160.833 108.488 159.408C110.137 160.538 110.048 164.983 109.277 165.589ZM111.469 138.897C110.505 145.579 110.116 145 107.811 149.422C104.827 155.212 106.436 159.465 106.24 161.169C105.529 160.833 103.969 156.222 105.995 151.243C110.343 142.132 109.493 138.506 111.469 138.897ZM97.7062 138.476C98.7844 139.645 99.6902 140.634 100.241 141.83C100.624 142.729 101.274 142.771 101.432 142.643C101.688 142.513 101.233 141.476 101.025 141.185C100.226 139.905 99.1087 138.56 98.4335 137.922C98.2047 137.681 97.8987 137.499 97.7701 137.185C97.7224 137.086 97.8063 136.995 97.8322 136.908C98.4461 136.928 99.3774 138.526 100.844 139.363C101.814 139.964 102.904 140.287 104.158 140.308C104.903 140.321 105.123 140.133 105.343 140.336C105.296 140.582 105.08 140.743 104.925 140.935C103.951 142.064 103.965 141.759 103.103 143.635C102.098 145.848 102.956 144.335 101.703 147.016C101.589 147.181 101.561 147.451 101.281 147.459C100.792 144.374 101.066 144.269 98.5871 140.467C98.0519 139.651 97.622 138.985 97.4808 138.484C97.5581 138.475 97.6332 138.472 97.7062 138.476ZM134.008 168.932C133.671 169.016 129.596 170.035 129.238 169.937C129.201 169.701 129.193 169.445 129.326 169.192C129.624 168.892 129.814 168.941 133.106 168.383C133.557 168.309 134.098 168.249 134.349 168.487C134.34 168.638 134.291 168.86 134.008 168.932ZM139.629 170.217C139.402 170.208 139.121 170.285 138.935 170.209C138.457 169.992 138.303 169.55 137.801 169.354C137.579 169.258 137.257 169.282 137.004 169.221C136.77 168.808 137.496 168.625 139.018 167.857C139.725 167.508 140.405 167.118 140.611 166.953C141.152 166.427 140.549 165.609 139.539 166.217C138.906 166.567 137.639 167.245 136.948 167.522C135.381 168.133 134.667 167.525 135.124 166.806C135.562 166.261 136.367 166.156 140.545 164.707C141.807 164.289 141.592 164.196 142.147 166.624C142.296 167.369 139.84 167.775 139.512 168.659C139.549 169.112 140.304 169.269 140.913 169.084C142.759 168.321 144.632 167.495 146.202 166.351C146.334 166.253 146.492 166.232 146.636 166.208C146.518 166.461 145.583 167.581 145.394 167.796C144.501 168.811 143.694 169.379 142.684 170.104C141.603 170.874 140.875 170.193 139.629 170.217ZM144.266 172.276C143.299 172.554 142.454 172.454 142.564 171.492C142.626 171.18 143.121 171.067 144.201 170.365C146.287 168.98 147.942 167.079 150.695 163.366C151.014 162.941 151.144 162.805 151.377 162.674C151.487 163.111 147.09 171.513 144.266 172.276ZM163.227 115.658C162.995 116.17 162.562 116.588 162.578 116.785C162.804 117.481 163.976 116.848 164.455 115.676C164.547 115.44 164.692 115.388 164.804 115.723C165.182 116.886 164.71 120.605 164.72 121.278C164.724 122.254 165.804 121.415 166.041 120.882C166.231 120.454 166.669 118.725 166.741 117.842C166.807 116.967 166.614 116.781 166.777 116.398C167.587 115.808 168.153 117.93 168.453 118.858C171.151 127.56 167.621 140.783 163.159 148.136C163.132 148.179 152.97 165.332 151.157 168.48C149.146 171.961 148.602 172.247 147.691 172.771C147.072 173.154 146.092 173.115 146.011 172.969C145.609 172.567 146.471 172.297 147.861 171.005C150.168 168.789 151.371 166.038 152.72 163.366C154.929 158.894 156.917 156.842 157.597 155.958C161.056 151.522 157.832 155.251 163.004 147.315C163.361 146.774 163.616 146.214 163.815 145.664C163.875 145.529 163.777 145.452 163.719 145.373C162.516 145.425 161.01 148.541 160.08 149.179C160.455 148.204 165.342 140.892 166.21 134.372C166.586 131.491 166.537 124.014 166.539 124.251C166.533 123.332 166.473 123.081 166.262 122.926C165.994 122.711 165.404 122.795 165.25 123.218C164.342 125.043 165.217 128.808 164.702 133.837C163.943 140.755 159.097 149.318 154.184 154.452C151.794 157.019 152.18 156.526 149.693 158.18C146.735 160.063 142.897 162.314 141.488 163.073C138.823 164.596 135.977 164.406 133.555 166.212C133.508 166.249 129.969 167.958 125.912 168.407C124.827 168.519 120.809 168.757 117.143 168.245C115.089 167.93 115.016 167.354 114.232 167.584C113.746 167.936 113.823 168.524 114.4 168.71C115.207 168.962 115.567 169.033 117.495 169.469C117.928 169.584 118.456 169.56 118.794 169.778C117.718 170.073 115.064 169.801 114.008 169.644C109.343 168.93 107.38 167.376 106.367 166.809C104.589 165.634 103.603 164.933 102.426 162.878C100.621 159.71 100.421 156.841 100.244 156.02C99.9505 153.514 99.9696 153.13 99.5888 152.847C99.333 152.693 98.9375 152.547 98.6486 152.749C98.4037 152.992 98.4647 153.315 98.492 153.599C99.021 157.487 99.1015 157.534 98.9114 157.752C98.069 157.152 93.4202 135.968 93.4311 135.619C93.5193 135.465 93.6625 135.65 93.7251 135.736C94.0371 136.051 94.1607 136.49 94.3399 136.889C96.2783 141.375 96.2819 141.968 96.597 144.165C96.6799 145.631 96.2471 146.082 97.9017 145.493C98.1234 145.516 98.0158 146.728 98.3183 148.698C98.3539 149.359 98.5323 150.113 98.8403 150.707C99.6564 152.284 100.808 151.697 100.763 151.315C100.657 150.941 99.4739 150.337 99.3089 145.779C99.3175 145.143 99.0784 144.09 99.114 143.838C99.14 143.815 99.1917 143.771 99.2176 143.748C99.8206 145.575 99.8444 148.07 100.234 149.06C100.696 150.277 102.539 149.538 102.372 150.112C101.72 152.817 101.934 160.845 105.768 165.216C106.874 166.475 108.273 167.386 109.906 168.089C111.558 168.776 111.738 169.094 112.29 168.954C112.571 168.905 112.885 168.5 112.238 168.231C111.163 167.738 110.678 166.802 111.006 166.52C111.183 166.465 111.257 166.569 111.93 166.674C113.328 166.877 129.62 167.839 143.591 158.788C155.421 150.973 162.348 138.48 163.28 128.442C163.592 125.342 163.459 125.066 162.886 122.793C162.769 122.375 162.152 121.531 161.582 121.882C161.134 122.14 160.782 123.012 160.21 123.867C159.527 124.878 158.971 125.071 158.248 125.617C155.03 127.96 150.307 126.42 152.88 122.564C155.627 118.476 157.836 118.806 159.704 111.826C160.184 110.031 160.17 110.055 160.286 109.9C160.332 109.908 160.425 109.924 160.471 109.932C160.93 110.62 160.315 109.97 161.733 111.623C163.459 113.642 163.742 114.545 163.227 115.658ZM163.528 103.292C161.969 101.293 161.992 101.335 162.834 100.831C163.093 101.132 163.135 101.276 163.303 101.545C163.468 101.814 163.771 102.209 164.506 103.029C164.29 103.59 163.918 103.747 163.528 103.292ZM165.604 102.466C165.378 102.499 165.173 102.386 165.04 102.225C163.825 100.684 163.217 100.224 164.32 99.7421C165.616 101.683 164.866 100.564 166.005 101.943C165.936 102.156 165.792 102.337 165.604 102.466ZM166.18 99.1803C166.024 99.3203 165.512 99.8503 165.24 99.3229C165.353 98.6686 166.482 97.4026 168.144 96.9304C167.675 97.7792 167.079 98.3751 166.18 99.1803ZM166.332 100.477C166.216 100.03 168.458 98.4448 169.253 98.044C168.505 100.15 166.351 101.243 166.332 100.477ZM89.9968 2.31979C90.3527 2.59388 90.3092 3.57646 90.2122 3.82624C90.006 4.10851 89.5554 3.1335 89.9968 2.31979ZM88.1596 2.30291C88.1742 2.43959 88.197 2.57657 88.2387 2.71198C84.4208 3.02997 80.6302 3.57337 76.9071 4.33253C76.7429 4.04426 76.5752 3.75681 76.4014 3.47145C82.3761 2.49988 87.8092 2.27677 88.1596 2.30291ZM75.084 3.84386C75.6667 4.17994 75.7216 5.12102 75.7859 5.56224C75.8097 5.76912 75.8735 5.98271 75.7534 6.19364C75.6739 6.19081 75.596 6.18877 75.5197 6.18812C75.0753 5.80253 74.7608 4.70094 75.084 3.84386ZM73.467 4.06775C73.4991 4.31261 73.5392 4.55678 73.5761 4.80177C72.5851 5.14512 66.2631 5.92372 56.6253 10.4067C56.4532 10.4877 55.8412 10.7734 55.6606 10.8431C55.047 10.7126 54.8802 10.2209 54.6209 9.83694C59.9196 7.34422 67.5883 5.21145 73.467 4.06775ZM53.4024 10.3382C54.3184 10.7377 54.6273 11.8798 54.9429 12.5832C54.9952 12.6828 54.9481 12.7999 54.8859 12.9103C54.0431 13.0939 53.1229 10.8529 53.4024 10.3382ZM19.4092 134.271C18.6004 133.268 18.5651 133.236 17.976 132.444C18.5493 132.023 19.2164 131.725 19.7882 131.302C20.2135 131.784 20.701 132.579 21.1735 133.171C20.8628 133.819 20.2448 134.302 19.4092 134.271ZM36.0645 149.018C35.5971 148.804 35.7081 148.879 33.3146 147.013C33.6117 146.665 33.8967 146.308 34.1786 145.948C34.3639 146.064 36.7347 147.708 37.0072 147.875C36.6775 148.245 36.3663 148.629 36.0645 149.018ZM42.8225 149.487C42.5081 149.334 42.2104 149.151 41.8979 148.995C42.8541 147.998 43.8443 147.025 44.8045 146.032C45.3281 146.341 45.86 146.64 46.399 146.925C45.0869 147.124 43.5648 148.657 42.8225 149.487ZM39.1667 133.507C41.6399 132.699 42.7873 131.452 43.8737 130.274C44.5079 130.739 45.5093 131.262 45.8954 132.17C45.9555 132.31 46.044 132.465 45.9861 132.609C45.5065 133.996 43.187 135.922 41.6039 136.142C40.4949 135.52 39.7719 134.565 39.1667 133.507ZM40.4827 137.581C42.809 137.594 41.7767 137.844 44.4211 138.529C44.7846 138.626 45.1681 138.652 45.5042 138.843C43.5906 138.535 41.9263 138.208 39.5076 137.615C39.5949 137.53 39.7145 137.569 40.4827 137.581ZM13.7447 115.58C19.3866 125.534 23.6135 130.293 28.8855 135.583C29.852 136.55 29.9363 136.416 34.795 137.661C40.7357 139.184 44.124 139.837 46.5362 140.236C48.4358 140.535 50.1709 140.38 50.7941 142.085C51.0196 142.774 50.8262 142.899 50.3506 143.321C49.5333 143.966 48.469 144.076 47.0888 144.251C43.576 144.696 43.9734 144.864 40.5695 147.926C38.4416 146.732 38.3196 146.247 37.653 146.744C37.618 146.751 37.548 146.764 37.5136 146.771C37.1409 146.531 36.1859 145.9 34.9253 144.994C35.0006 144.637 35.0513 144.271 35.1361 143.918C27.428 138.107 23.4256 132.549 22.6932 131.709C22.324 131.8 21.9724 131.924 21.6001 132.009C21.1165 131.454 20.7188 130.842 20.2671 130.267C20.0236 130.198 19.7867 130.2 19.5477 130.167C10.5665 119.478 2.82073 101.179 3.22135 84.22C3.69898 83.9184 5.22223 84.2146 5.2802 84.3057C5.63806 98.3383 8.99395 107.199 13.7447 115.58ZM37.4574 19.4033C43.8692 15.0058 51.2352 11.4863 52.0427 11.2336C52.1062 11.4774 52.1799 11.7181 52.2418 11.9624C46.3269 14.7993 42.473 16.9361 36.3981 21.9025C32.4194 25.2143 31.7876 25.618 30.1397 27.2166C29.6605 26.9311 29.1748 26.6534 28.6999 26.363C29.213 25.7854 32.7579 22.6121 37.4574 19.4033ZM29.7033 28.5836C29.815 28.6926 29.9423 28.8125 29.9013 29.0035C29.8156 29.0425 29.7227 29.1185 29.6393 29.1005C28.8008 29.0386 27.5221 27.7006 27.4933 27.1035C28.2652 27.031 29.3048 28.1043 29.7033 28.5836ZM26.5849 28.6394C26.8841 28.9246 27.1376 29.25 27.4449 29.5291C23.5046 33.3876 18.0444 40.4384 12.8419 50.6846C12.1459 50.7856 11.5733 50.4309 10.9043 50.4147C14.8964 42.8632 20.1222 34.7701 26.5849 28.6394ZM9.94027 51.5406C10.6592 51.1257 12.5689 52.123 12.9255 52.2875C13.1137 52.3856 13.3477 52.4825 13.3671 52.7524C12.6313 53.5437 9.83834 51.9358 9.94027 51.5406ZM9.61641 53.5151C10.037 53.5491 10.4091 53.7286 10.7051 54.0092C9.24086 58.747 6.88384 62.4136 5.78238 73.0707C5.71563 73.7165 5.35701 78.5189 5.10232 80.72C4.48373 80.7438 3.86513 80.7426 3.24672 80.7692C3.05077 76.0963 5.37341 61.2782 9.61641 53.5151ZM5.71592 82.1506C5.96212 82.2 6.25986 82.1476 6.43263 82.4158C6.26057 83.2477 3.48171 83.1243 2.75451 82.536C3.25306 81.9115 5.05126 82.0813 5.71592 82.1506Z" fill="#231F20"/>
</svg>
